<svg width="772" height="275" viewBox="0 0 772 275" fill="none" xmlns="http://www.w3.org/2000/svg">
<path d="M259.612 15.84C259.612 6.264 233.332 0.863997 233.332 14.328C233.332 28.728 267.172 19.296 267.172 38.808C267.172 47.16 256.804 53.928 244.06 53.928C239.812 53.928 235.852 53.136 232.396 51.84V41.688H233.692C233.692 51.264 259.972 56.736 259.972 43.2C259.972 28.872 226.204 38.232 226.204 18.792C226.204 10.44 236.5 3.6 249.244 3.6C253.492 3.6 257.524 4.392 260.908 5.688V15.84H259.612ZM306.354 54H270.858V52.776C273.018 52.776 274.89 50.904 274.89 48.672V9C274.89 6.768 273.018 4.896 270.858 4.896V3.6H306.354V11.736H305.058V11.664C305.058 7.92 302.106 4.896 298.362 4.896H284.97V28.224H290.73C294.402 28.224 297.426 25.2 297.426 21.456V21.384H298.722V36.288H297.426V36.216C297.426 32.472 294.402 29.52 290.73 29.52H284.97V52.776H298.362C302.106 52.776 305.058 49.752 305.058 46.008V45.936H306.354V54ZM346.15 54H310.654V52.776C312.814 52.776 314.686 50.904 314.686 48.672V9C314.686 6.768 312.814 4.896 310.654 4.896V3.6H346.15V11.736H344.854V11.664C344.854 7.92 341.902 4.896 338.158 4.896H324.766V28.224H330.526C334.198 28.224 337.222 25.2 337.222 21.456V21.384H338.518V36.288H337.222V36.216C337.222 32.472 334.198 29.52 330.526 29.52H324.766V52.776H338.158C341.902 52.776 344.854 49.752 344.854 46.008V45.936H346.15V54ZM379.625 54V54.072H375.593V52.776C377.825 52.776 379.625 50.904 379.625 48.744V4.968H372.209C368.465 4.968 365.441 7.92 365.441 11.664V11.736H364.217V3.6H405.185V11.736H403.889V11.664C403.889 7.92 400.865 4.896 397.121 4.896H389.705V48.672C389.705 50.904 391.505 52.776 393.737 52.776V54H379.625ZM426.955 54H408.811V52.776C410.971 52.776 412.843 50.904 412.843 48.672V9C412.843 6.768 410.971 4.896 408.811 4.896V3.6H426.955V4.896C424.723 4.896 422.923 6.768 422.923 9V28.152H443.659V9C443.659 6.768 441.859 4.896 439.627 4.896V3.6H457.843V4.896C455.611 4.896 453.811 6.768 453.811 9V48.672C453.811 50.904 455.611 52.776 457.843 52.776V54.072H439.627V52.776C441.859 52.776 443.659 50.904 443.659 48.744V29.52H422.923V48.672C422.923 50.904 424.723 52.776 426.955 52.776V54ZM497.604 54H462.108V52.776C464.268 52.776 466.14 50.904 466.14 48.672V9C466.14 6.768 464.268 4.896 462.108 4.896V3.6H497.604V11.736H496.308V11.664C496.308 7.92 493.356 4.896 489.612 4.896H476.22V28.224H481.98C485.652 28.224 488.676 25.2 488.676 21.456V21.384H489.972V36.288H488.676V36.216C488.676 32.472 485.652 29.52 481.98 29.52H476.22V52.776H489.612C493.356 52.776 496.308 49.752 496.308 46.008V45.936H497.604V54ZM56.9009 142.595H101.996C104.875 142.595 107.241 139.717 107.241 136.838C107.241 133.96 104.875 131.082 101.996 131.082H56.9009V142.595ZM95.7275 97.5H56.9009V109.078H95.7275C98.606 109.078 100.973 106.135 100.973 103.257C100.973 100.378 98.606 97.5 95.7275 97.5ZM122.465 118.608C132.188 121.743 138.712 129.163 138.712 139.973C138.904 155.004 126.239 163.064 111.463 163.064H23.3833V77.0952H105.13C120.034 77.0312 132.635 85.1548 132.443 100.123C132.443 108.374 128.605 114.707 122.465 118.608ZM147.731 76.9673H181.249V162.936H147.731V76.9673ZM249.563 130.442V115.73H307.963V165.047H291.204L289.541 151.678C279.562 161.529 264.403 165.047 249.819 165.047C217.453 164.919 190.971 155.58 191.099 123.086V116.817C190.971 84.2593 217.453 74.9204 249.819 74.8564C279.626 74.8564 304.189 82.98 307.963 109.461H272.334C270.224 106.583 267.153 104.664 263.188 103.641C259.222 102.617 254.744 102.105 249.819 102.105C236.066 102.297 224.425 104.856 224.617 118.864V120.975C224.425 135.111 236.066 137.542 249.819 137.734C263.06 137.734 271.503 136.966 276.556 130.442H249.563ZM376.981 130.442V115.73H435.381V165.047H418.622L416.959 151.678C406.98 161.529 391.821 165.047 377.237 165.047C344.871 164.919 318.389 155.58 318.517 123.086V116.817C318.389 84.2593 344.871 74.9204 377.237 74.8564C407.044 74.8564 431.607 82.98 435.381 109.461H399.752C397.642 106.583 394.571 104.664 390.605 103.641C386.64 102.617 382.162 102.105 377.237 102.105C363.484 102.297 351.843 104.856 352.035 118.864V120.975C351.843 135.111 363.484 137.542 377.237 137.734C390.478 137.734 398.921 136.966 403.974 130.442H376.981ZM450.796 163.064V77.0952H551.413V99.0991H484.314V110.101H551.413V129.994H484.314V140.996H551.413V163.064H450.796ZM569.259 77.0312H652.094C669.812 76.8394 684.844 91.7432 684.588 109.525C684.588 115.986 682.861 121.871 679.407 127.116C676.017 132.297 671.475 136.263 665.846 138.885L684.588 163H648.896L632.712 142.02H602.777V163H569.259V77.0312ZM643.65 102.169H602.777V116.817H643.65C645.697 116.817 647.424 116.114 648.832 114.707C650.303 113.235 651.006 111.508 651.006 109.525C651.006 105.432 647.744 102.169 643.65 102.169ZM33.8735 225.881H74.811C76.7939 225.881 78.521 225.178 79.9282 223.771C81.3994 222.299 82.103 220.572 82.103 218.589C82.103 216.542 81.3994 214.815 79.9282 213.408C78.521 211.937 76.7939 211.233 74.811 211.233H33.8735V225.881ZM0.355957 186.095H83.1904C100.909 185.903 115.94 200.807 115.685 218.589C115.94 236.308 100.909 251.339 83.1904 251.083H33.8735V272.064H0.355957V186.095ZM124.832 185.967H158.349V271.936H124.832V185.967ZM251.098 236.308H285.447C283.336 265.348 257.878 274.047 226.919 274.047C194.681 273.983 168.072 264.644 168.2 232.086V225.817C168.072 193.323 194.681 183.984 226.919 183.856C257.878 183.92 283.336 192.62 285.447 221.596H251.098C247.964 213.152 238.433 211.169 226.919 211.169C213.231 211.361 201.589 213.792 201.781 227.928V230.039C201.589 244.047 213.231 246.606 226.919 246.798C238.433 246.798 248.028 244.751 251.098 236.308ZM361.438 272.064H327.92V213.344H288.07V186.095H401.288V213.344H361.438V272.064ZM496.531 230.039V185.967H530.113V232.15C530.241 264.644 503.631 273.983 471.393 274.047C439.155 273.983 412.545 264.644 412.673 232.15V185.967H446.191V230.039C446.063 244.175 457.641 246.606 471.393 246.798C485.082 246.606 496.723 244.175 496.531 230.039ZM545.208 186.031H628.043C645.761 185.839 660.793 200.743 660.537 218.525C660.537 224.986 658.81 230.871 655.356 236.116C651.966 241.297 647.424 245.263 641.795 247.885L660.537 272H624.845L608.662 251.02H578.726V272H545.208V186.031ZM619.6 211.169H578.726V225.817H619.6C621.646 225.817 623.374 225.114 624.781 223.707C626.252 222.235 626.956 220.508 626.956 218.525C626.956 214.432 623.693 211.169 619.6 211.169ZM670.963 272.064V186.095H771.58V208.099H704.481V219.101H771.58V238.994H704.481V249.996H771.58V272.064H670.963Z" fill="url(#paint0_linear_124_2)"/>
<path d="M259.612 15.84H258.612V16.84H259.612V15.84ZM232.396 51.84H231.396V52.533L232.045 52.7763L232.396 51.84ZM232.396 41.688V40.688H231.396V41.688H232.396ZM233.692 41.688H234.692V40.688H233.692V41.688ZM260.908 5.688H261.908V5.00015L261.266 4.75415L260.908 5.688ZM260.908 15.84V16.84H261.908V15.84H260.908ZM260.612 15.84C260.612 12.9577 258.644 10.5606 256.06 8.83844C253.45 7.09798 250.014 5.90118 246.602 5.45253C243.203 5.00546 239.695 5.28484 236.989 6.64389C234.212 8.03906 232.332 10.5578 232.332 14.328H234.332C234.332 11.3662 235.737 9.51094 237.887 8.43111C240.109 7.31516 243.171 7.01852 246.342 7.43546C249.5 7.85081 252.634 8.95801 254.951 10.5025C257.295 12.0654 258.612 13.9343 258.612 15.84H260.612ZM232.332 14.328C232.332 16.3429 232.931 17.9935 234.005 19.3381C235.063 20.6627 236.537 21.634 238.205 22.3941C241.501 23.896 245.88 24.7033 250.035 25.6272C254.279 26.5708 258.336 27.6413 261.335 29.6121C264.252 31.5284 266.172 34.2959 266.172 38.808H268.172C268.172 33.5641 265.862 30.1936 262.434 27.9406C259.088 25.7422 254.685 24.6122 250.469 23.6748C246.164 22.7177 242.083 21.9635 239.034 20.5741C237.53 19.8886 236.36 19.0818 235.567 18.0898C234.791 17.1178 234.332 15.9131 234.332 14.328H232.332ZM266.172 38.808C266.172 42.536 263.857 46.0418 259.848 48.663C255.847 51.2783 250.266 52.928 244.06 52.928V54.928C250.598 54.928 256.573 53.1937 260.942 50.337C265.303 47.4862 268.172 43.432 268.172 38.808H266.172ZM244.06 52.928C239.936 52.928 236.095 52.159 232.747 50.9037L232.045 52.7763C235.609 54.113 239.688 54.928 244.06 54.928V52.928ZM233.396 51.84V41.688H231.396V51.84H233.396ZM232.396 42.688H233.692V40.688H232.396V42.688ZM232.692 41.688C232.692 44.5696 234.66 46.9711 237.242 48.6988C239.853 50.445 243.288 51.6489 246.7 52.1023C250.1 52.554 253.609 52.2773 256.316 50.914C259.095 49.5142 260.972 46.9856 260.972 43.2H258.972C258.972 46.1824 257.564 48.0458 255.416 49.1278C253.195 50.2462 250.134 50.541 246.964 50.1197C243.806 49.7001 240.671 48.5865 238.354 47.0365C236.01 45.4679 234.692 43.5944 234.692 41.688H232.692ZM260.972 43.2C260.972 41.1933 260.374 39.5493 259.302 38.2099C258.245 36.8906 256.774 35.9229 255.11 35.1652C251.821 33.6681 247.452 32.8608 243.306 31.9369C239.071 30.9933 235.022 29.9229 232.029 27.9564C229.119 26.0442 227.204 23.2855 227.204 18.792H225.204C225.204 24.0185 227.51 27.3798 230.931 29.6279C234.27 31.8216 238.663 32.9517 242.871 33.8891C247.166 34.8462 251.239 35.6004 254.281 36.9855C255.783 37.669 256.95 38.4726 257.74 39.4599C258.515 40.427 258.972 41.6247 258.972 43.2H260.972ZM227.204 18.792C227.204 15.0596 229.506 11.5358 233.496 8.89825C237.478 6.26656 243.041 4.59999 249.244 4.59999V2.59999C242.703 2.59999 236.746 4.35344 232.394 7.22974C228.05 10.1002 225.204 14.1724 225.204 18.792H227.204ZM249.244 4.59999C253.372 4.59999 257.282 5.37025 260.55 6.62186L261.266 4.75415C257.766 3.41374 253.612 2.59999 249.244 2.59999V4.59999ZM259.908 5.688V15.84H261.908V5.688H259.908ZM260.908 14.84H259.612V16.84H260.908V14.84ZM306.354 54V55H307.354V54H306.354ZM270.858 54H269.858V55H270.858V54ZM270.858 52.776V51.776H269.858V52.776H270.858ZM270.858 4.896H269.858V5.896H270.858V4.896ZM270.858 3.59999V2.59999H269.858V3.59999H270.858ZM306.354 3.59999H307.354V2.59999H306.354V3.59999ZM306.354 11.736V12.736H307.354V11.736H306.354ZM305.058 11.736H304.058V12.736H305.058V11.736ZM284.97 4.896V3.896H283.97V4.896H284.97ZM284.97 28.224H283.97V29.224H284.97V28.224ZM297.426 21.384V20.384H296.426V21.384H297.426ZM298.722 21.384H299.722V20.384H298.722V21.384ZM298.722 36.288V37.288H299.722V36.288H298.722ZM297.426 36.288H296.426V37.288H297.426V36.288ZM284.97 29.52V28.52H283.97V29.52H284.97ZM284.97 52.776H283.97V53.776H284.97V52.776ZM305.058 45.936V44.936H304.058V45.936H305.058ZM306.354 45.936H307.354V44.936H306.354V45.936ZM306.354 53H270.858V55H306.354V53ZM271.858 54V52.776H269.858V54H271.858ZM270.858 53.776C273.581 53.776 275.89 51.4448 275.89 48.672H273.89C273.89 50.3632 272.454 51.776 270.858 51.776V53.776ZM275.89 48.672V9H273.89V48.672H275.89ZM275.89 9C275.89 6.22717 273.581 3.896 270.858 3.896V5.896C272.454 5.896 273.89 7.30882 273.89 9H275.89ZM271.858 4.896V3.59999H269.858V4.896H271.858ZM270.858 4.59999H306.354V2.59999H270.858V4.59999ZM305.354 3.59999V11.736H307.354V3.59999H305.354ZM306.354 10.736H305.058V12.736H306.354V10.736ZM306.058 11.736V11.664H304.058V11.736H306.058ZM306.058 11.664C306.058 7.38173 302.672 3.896 298.362 3.896V5.896C301.539 5.896 304.058 8.45827 304.058 11.664H306.058ZM298.362 3.896H284.97V5.896H298.362V3.896ZM283.97 4.896V28.224H285.97V4.896H283.97ZM284.97 29.224H290.73V27.224H284.97V29.224ZM290.73 29.224C294.961 29.224 298.426 25.7453 298.426 21.456H296.426C296.426 24.6547 293.842 27.224 290.73 27.224V29.224ZM298.426 21.456V21.384H296.426V21.456H298.426ZM297.426 22.384H298.722V20.384H297.426V22.384ZM297.722 21.384V36.288H299.722V21.384H297.722ZM298.722 35.288H297.426V37.288H298.722V35.288ZM298.426 36.288V36.216H296.426V36.288H298.426ZM298.426 36.216C298.426 31.9127 294.947 28.52 290.73 28.52V30.52C293.856 30.52 296.426 33.0313 296.426 36.216H298.426ZM290.73 28.52H284.97V30.52H290.73V28.52ZM283.97 29.52V52.776H285.97V29.52H283.97ZM284.97 53.776H298.362V51.776H284.97V53.776ZM298.362 53.776C302.672 53.776 306.058 50.2903 306.058 46.008H304.058C304.058 49.2137 301.539 51.776 298.362 51.776V53.776ZM306.058 46.008V45.936H304.058V46.008H306.058ZM305.058 46.936H306.354V44.936H305.058V46.936ZM305.354 45.936V54H307.354V45.936H305.354ZM346.15 54V55H347.15V54H346.15ZM310.654 54H309.654V55H310.654V54ZM310.654 52.776V51.776H309.654V52.776H310.654ZM310.654 4.896H309.654V5.896H310.654V4.896ZM310.654 3.59999V2.59999H309.654V3.59999H310.654ZM346.15 3.59999H347.15V2.59999H346.15V3.59999ZM346.15 11.736V12.736H347.15V11.736H346.15ZM344.854 11.736H343.854V12.736H344.854V11.736ZM324.766 4.896V3.896H323.766V4.896H324.766ZM324.766 28.224H323.766V29.224H324.766V28.224ZM337.222 21.384V20.384H336.222V21.384H337.222ZM338.518 21.384H339.518V20.384H338.518V21.384ZM338.518 36.288V37.288H339.518V36.288H338.518ZM337.222 36.288H336.222V37.288H337.222V36.288ZM324.766 29.52V28.52H323.766V29.52H324.766ZM324.766 52.776H323.766V53.776H324.766V52.776ZM344.854 45.936V44.936H343.854V45.936H344.854ZM346.15 45.936H347.15V44.936H346.15V45.936ZM346.15 53H310.654V55H346.15V53ZM311.654 54V52.776H309.654V54H311.654ZM310.654 53.776C313.378 53.776 315.686 51.4448 315.686 48.672H313.686C313.686 50.3632 312.251 51.776 310.654 51.776V53.776ZM315.686 48.672V9H313.686V48.672H315.686ZM315.686 9C315.686 6.22717 313.378 3.896 310.654 3.896V5.896C312.251 5.896 313.686 7.30882 313.686 9H315.686ZM311.654 4.896V3.59999H309.654V4.896H311.654ZM310.654 4.59999H346.15V2.59999H310.654V4.59999ZM345.15 3.59999V11.736H347.15V3.59999H345.15ZM346.15 10.736H344.854V12.736H346.15V10.736ZM345.854 11.736V11.664H343.854V11.736H345.854ZM345.854 11.664C345.854 7.38173 342.469 3.896 338.158 3.896V5.896C341.336 5.896 343.854 8.45827 343.854 11.664H345.854ZM338.158 3.896H324.766V5.896H338.158V3.896ZM323.766 4.896V28.224H325.766V4.896H323.766ZM324.766 29.224H330.526V27.224H324.766V29.224ZM330.526 29.224C334.758 29.224 338.222 25.7453 338.222 21.456H336.222C336.222 24.6547 333.639 27.224 330.526 27.224V29.224ZM338.222 21.456V21.384H336.222V21.456H338.222ZM337.222 22.384H338.518V20.384H337.222V22.384ZM337.518 21.384V36.288H339.518V21.384H337.518ZM338.518 35.288H337.222V37.288H338.518V35.288ZM338.222 36.288V36.216H336.222V36.288H338.222ZM338.222 36.216C338.222 31.9127 334.744 28.52 330.526 28.52V30.52C333.653 30.52 336.222 33.0313 336.222 36.216H338.222ZM330.526 28.52H324.766V30.52H330.526V28.52ZM323.766 29.52V52.776H325.766V29.52H323.766ZM324.766 53.776H338.158V51.776H324.766V53.776ZM338.158 53.776C342.469 53.776 345.854 50.2903 345.854 46.008H343.854C343.854 49.2137 341.336 51.776 338.158 51.776V53.776ZM345.854 46.008V45.936H343.854V46.008H345.854ZM344.854 46.936H346.15V44.936H344.854V46.936ZM345.15 45.936V54H347.15V45.936H345.15ZM379.625 54V53H378.625V54H379.625ZM379.625 54.072V55.072H380.625V54.072H379.625ZM375.593 54.072H374.593V55.072H375.593V54.072ZM375.593 52.776V51.776H374.593V52.776H375.593ZM379.625 4.968H380.625V3.968H379.625V4.968ZM365.441 11.736V12.736H366.441V11.736H365.441ZM364.217 11.736H363.217V12.736H364.217V11.736ZM364.217 3.59999V2.59999H363.217V3.59999H364.217ZM405.185 3.59999H406.185V2.59999H405.185V3.59999ZM405.185 11.736V12.736H406.185V11.736H405.185ZM403.889 11.736H402.889V12.736H403.889V11.736ZM389.705 4.896V3.896H388.705V4.896H389.705ZM393.737 52.776H394.737V51.776H393.737V52.776ZM393.737 54V55H394.737V54H393.737ZM378.625 54V54.072H380.625V54H378.625ZM379.625 53.072H375.593V55.072H379.625V53.072ZM376.593 54.072V52.776H374.593V54.072H376.593ZM375.593 53.776C378.389 53.776 380.625 51.4447 380.625 48.744H378.625C378.625 50.3633 377.262 51.776 375.593 51.776V53.776ZM380.625 48.744V4.968H378.625V48.744H380.625ZM379.625 3.968H372.209V5.968H379.625V3.968ZM372.209 3.968C367.927 3.968 364.441 7.35379 364.441 11.664H366.441C366.441 8.48619 369.004 5.968 372.209 5.968V3.968ZM364.441 11.664V11.736H366.441V11.664H364.441ZM365.441 10.736H364.217V12.736H365.441V10.736ZM365.217 11.736V3.59999H363.217V11.736H365.217ZM364.217 4.59999H405.185V2.59999H364.217V4.59999ZM404.185 3.59999V11.736H406.185V3.59999H404.185ZM405.185 10.736H403.889V12.736H405.185V10.736ZM404.889 11.736V11.664H402.889V11.736H404.889ZM404.889 11.664C404.889 7.36771 401.418 3.896 397.121 3.896V5.896C400.313 5.896 402.889 8.47227 402.889 11.664H404.889ZM397.121 3.896H389.705V5.896H397.121V3.896ZM388.705 4.896V48.672H390.705V4.896H388.705ZM388.705 48.672C388.705 51.4332 390.93 53.776 393.737 53.776V51.776C392.081 51.776 390.705 50.3748 390.705 48.672H388.705ZM392.737 52.776V54H394.737V52.776H392.737ZM393.737 53H379.625V55H393.737V53ZM426.955 54V55H427.955V54H426.955ZM408.811 54H407.811V55H408.811V54ZM408.811 52.776V51.776H407.811V52.776H408.811ZM408.811 4.896H407.811V5.896H408.811V4.896ZM408.811 3.59999V2.59999H407.811V3.59999H408.811ZM426.955 3.59999H427.955V2.59999H426.955V3.59999ZM426.955 4.896V5.896H427.955V4.896H426.955ZM422.923 28.152H421.923V29.152H422.923V28.152ZM443.659 28.152V29.152H444.659V28.152H443.659ZM439.627 4.896H438.627V5.896H439.627V4.896ZM439.627 3.59999V2.59999H438.627V3.59999H439.627ZM457.843 3.59999H458.843V2.59999H457.843V3.59999ZM457.843 4.896V5.896H458.843V4.896H457.843ZM457.843 52.776H458.843V51.776H457.843V52.776ZM457.843 54.072V55.072H458.843V54.072H457.843ZM439.627 54.072H438.627V55.072H439.627V54.072ZM439.627 52.776V51.776H438.627V52.776H439.627ZM443.659 29.52H444.659V28.52H443.659V29.52ZM422.923 29.52V28.52H421.923V29.52H422.923ZM426.955 52.776H427.955V51.776H426.955V52.776ZM426.955 53H408.811V55H426.955V53ZM409.811 54V52.776H407.811V54H409.811ZM408.811 53.776C411.534 53.776 413.843 51.4448 413.843 48.672H411.843C411.843 50.3632 410.407 51.776 408.811 51.776V53.776ZM413.843 48.672V9H411.843V48.672H413.843ZM413.843 9C413.843 6.22717 411.534 3.896 408.811 3.896V5.896C410.407 5.896 411.843 7.30882 411.843 9H413.843ZM409.811 4.896V3.59999H407.811V4.896H409.811ZM408.811 4.59999H426.955V2.59999H408.811V4.59999ZM425.955 3.59999V4.896H427.955V3.59999H425.955ZM426.955 3.896C424.148 3.896 421.923 6.23885 421.923 9H423.923C423.923 7.29715 425.298 5.896 426.955 5.896V3.896ZM421.923 9V28.152H423.923V9H421.923ZM422.923 29.152H443.659V27.152H422.923V29.152ZM444.659 28.152V9H442.659V28.152H444.659ZM444.659 9C444.659 6.23885 442.434 3.896 439.627 3.896V5.896C441.284 5.896 442.659 7.29715 442.659 9H444.659ZM440.627 4.896V3.59999H438.627V4.896H440.627ZM439.627 4.59999H457.843V2.59999H439.627V4.59999ZM456.843 3.59999V4.896H458.843V3.59999H456.843ZM457.843 3.896C455.036 3.896 452.811 6.23885 452.811 9H454.811C454.811 7.29715 456.186 5.896 457.843 5.896V3.896ZM452.811 9V48.672H454.811V9H452.811ZM452.811 48.672C452.811 51.4332 455.036 53.776 457.843 53.776V51.776C456.186 51.776 454.811 50.3748 454.811 48.672H452.811ZM456.843 52.776V54.072H458.843V52.776H456.843ZM457.843 53.072H439.627V55.072H457.843V53.072ZM440.627 54.072V52.776H438.627V54.072H440.627ZM439.627 53.776C442.422 53.776 444.659 51.4447 444.659 48.744H442.659C442.659 50.3633 441.295 51.776 439.627 51.776V53.776ZM444.659 48.744V29.52H442.659V48.744H444.659ZM443.659 28.52H422.923V30.52H443.659V28.52ZM421.923 29.52V48.672H423.923V29.52H421.923ZM421.923 48.672C421.923 51.4332 424.148 53.776 426.955 53.776V51.776C425.298 51.776 423.923 50.3748 423.923 48.672H421.923ZM425.955 52.776V54H427.955V52.776H425.955ZM497.604 54V55H498.604V54H497.604ZM462.108 54H461.108V55H462.108V54ZM462.108 52.776V51.776H461.108V52.776H462.108ZM462.108 4.896H461.108V5.896H462.108V4.896ZM462.108 3.59999V2.59999H461.108V3.59999H462.108ZM497.604 3.59999H498.604V2.59999H497.604V3.59999ZM497.604 11.736V12.736H498.604V11.736H497.604ZM496.308 11.736H495.308V12.736H496.308V11.736ZM476.22 4.896V3.896H475.22V4.896H476.22ZM476.22 28.224H475.22V29.224H476.22V28.224ZM488.676 21.384V20.384H487.676V21.384H488.676ZM489.972 21.384H490.972V20.384H489.972V21.384ZM489.972 36.288V37.288H490.972V36.288H489.972ZM488.676 36.288H487.676V37.288H488.676V36.288ZM476.22 29.52V28.52H475.22V29.52H476.22ZM476.22 52.776H475.22V53.776H476.22V52.776ZM496.308 45.936V44.936H495.308V45.936H496.308ZM497.604 45.936H498.604V44.936H497.604V45.936ZM497.604 53H462.108V55H497.604V53ZM463.108 54V52.776H461.108V54H463.108ZM462.108 53.776C464.831 53.776 467.14 51.4448 467.14 48.672H465.14C465.14 50.3632 463.704 51.776 462.108 51.776V53.776ZM467.14 48.672V9H465.14V48.672H467.14ZM467.14 9C467.14 6.22717 464.831 3.896 462.108 3.896V5.896C463.704 5.896 465.14 7.30882 465.14 9H467.14ZM463.108 4.896V3.59999H461.108V4.896H463.108ZM462.108 4.59999H497.604V2.59999H462.108V4.59999ZM496.604 3.59999V11.736H498.604V3.59999H496.604ZM497.604 10.736H496.308V12.736H497.604V10.736ZM497.308 11.736V11.664H495.308V11.736H497.308ZM497.308 11.664C497.308 7.38173 493.922 3.896 489.612 3.896V5.896C492.789 5.896 495.308 8.45827 495.308 11.664H497.308ZM489.612 3.896H476.22V5.896H489.612V3.896ZM475.22 4.896V28.224H477.22V4.896H475.22ZM476.22 29.224H481.98V27.224H476.22V29.224ZM481.98 29.224C486.211 29.224 489.676 25.7453 489.676 21.456H487.676C487.676 24.6547 485.092 27.224 481.98 27.224V29.224ZM489.676 21.456V21.384H487.676V21.456H489.676ZM488.676 22.384H489.972V20.384H488.676V22.384ZM488.972 21.384V36.288H490.972V21.384H488.972ZM489.972 35.288H488.676V37.288H489.972V35.288ZM489.676 36.288V36.216H487.676V36.288H489.676ZM489.676 36.216C489.676 31.9127 486.197 28.52 481.98 28.52V30.52C485.106 30.52 487.676 33.0313 487.676 36.216H489.676ZM481.98 28.52H476.22V30.52H481.98V28.52ZM475.22 29.52V52.776H477.22V29.52H475.22ZM476.22 53.776H489.612V51.776H476.22V53.776ZM489.612 53.776C493.922 53.776 497.308 50.2903 497.308 46.008H495.308C495.308 49.2137 492.789 51.776 489.612 51.776V53.776ZM497.308 46.008V45.936H495.308V46.008H497.308ZM496.308 46.936H497.604V44.936H496.308V46.936ZM496.604 45.936V54H498.604V45.936H496.604ZM56.9009 142.595H55.9009V143.595H56.9009V142.595ZM56.9009 131.082V130.082H55.9009V131.082H56.9009ZM56.9009 97.5V96.5H55.9009V97.5H56.9009ZM56.9009 109.078H55.9009V110.078H56.9009V109.078ZM122.465 118.608L121.929 117.764L120.131 118.907L122.158 119.56L122.465 118.608ZM138.712 139.973H137.712L137.712 139.985L138.712 139.973ZM23.3833 163.064H22.3833V164.064H23.3833V163.064ZM23.3833 77.0952V76.0952H22.3833V77.0952H23.3833ZM105.13 77.0952V78.0952L105.135 78.0952L105.13 77.0952ZM132.443 100.123L131.443 100.11V100.123H132.443ZM56.9009 143.595H101.996V141.595H56.9009V143.595ZM101.996 143.595C103.78 143.595 105.349 142.705 106.448 141.457C107.546 140.212 108.241 138.543 108.241 136.838H106.241C106.241 138.013 105.753 139.221 104.948 140.135C104.144 141.047 103.09 141.595 101.996 141.595V143.595ZM108.241 136.838C108.241 135.134 107.546 133.465 106.448 132.219C105.349 130.972 103.78 130.082 101.996 130.082V132.082C103.09 132.082 104.144 132.63 104.948 133.542C105.753 134.455 106.241 135.664 106.241 136.838H108.241ZM101.996 130.082H56.9009V132.082H101.996V130.082ZM55.9009 131.082V142.595H57.9009V131.082H55.9009ZM95.7275 96.5H56.9009V98.5H95.7275V96.5ZM55.9009 97.5V109.078H57.9009V97.5H55.9009ZM56.9009 110.078H95.7275V108.078H56.9009V110.078ZM95.7275 110.078C97.5195 110.078 99.0888 109.164 100.184 107.902C101.279 106.643 101.973 104.959 101.973 103.257H99.9727C99.9727 104.433 99.4833 105.66 98.6745 106.591C97.8672 107.52 96.814 108.078 95.7275 108.078V110.078ZM101.973 103.257C101.973 101.553 101.277 99.883 100.18 98.6378C99.0802 97.3905 97.5116 96.5 95.7275 96.5V98.5C96.8219 98.5 97.8758 99.0487 98.6794 99.9603C99.4846 100.874 99.9727 102.083 99.9727 103.257H101.973ZM122.158 119.56C131.532 122.582 137.712 129.661 137.712 139.973H139.712C139.712 128.665 132.843 120.903 122.772 117.657L122.158 119.56ZM137.712 139.985C137.804 147.183 134.832 152.662 130.085 156.367C125.31 160.094 118.682 162.064 111.463 162.064V164.064C119.019 164.064 126.112 162.005 131.316 157.944C136.547 153.861 139.812 147.794 139.712 139.96L137.712 139.985ZM111.463 162.064H23.3833V164.064H111.463V162.064ZM24.3833 163.064V77.0952H22.3833V163.064H24.3833ZM23.3833 78.0952H105.13V76.0952H23.3833V78.0952ZM105.135 78.0952C112.417 78.0639 119.059 80.0346 123.833 83.7603C128.579 87.4649 131.535 92.9431 131.443 100.11L133.443 100.135C133.543 92.3342 130.295 86.2668 125.063 82.1837C119.858 78.1217 112.748 76.0625 105.126 76.0952L105.135 78.0952ZM131.443 100.123C131.443 108.023 127.788 114.041 121.929 117.764L123.001 119.452C129.423 115.372 133.443 108.725 133.443 100.123H131.443ZM147.731 76.9673V75.9673H146.731V76.9673H147.731ZM181.249 76.9673H182.249V75.9673H181.249V76.9673ZM181.249 162.936V163.936H182.249V162.936H181.249ZM147.731 162.936H146.731V163.936H147.731V162.936ZM147.731 77.9673H181.249V75.9673H147.731V77.9673ZM180.249 76.9673V162.936H182.249V76.9673H180.249ZM181.249 161.936H147.731V163.936H181.249V161.936ZM148.731 162.936V76.9673H146.731V162.936H148.731ZM249.563 130.442H248.563V131.442H249.563V130.442ZM249.563 115.73V114.73H248.563V115.73H249.563ZM307.963 115.73H308.963V114.73H307.963V115.73ZM307.963 165.047V166.047H308.963V165.047H307.963ZM291.204 165.047L290.212 165.17L290.321 166.047H291.204V165.047ZM289.541 151.678L290.533 151.555L290.283 149.541L288.839 150.967L289.541 151.678ZM249.819 165.047L249.815 166.047H249.819V165.047ZM191.099 123.086L192.099 123.09V123.086H191.099ZM191.099 116.817H192.099V116.813L191.099 116.817ZM249.819 74.8564V73.8564H249.817L249.819 74.8564ZM307.963 109.461V110.461H309.115L308.953 109.32L307.963 109.461ZM272.334 109.461L271.528 110.053L271.828 110.461H272.334V109.461ZM249.819 102.105V101.105L249.805 101.106L249.819 102.105ZM224.617 118.864H225.617L225.617 118.851L224.617 118.864ZM224.617 120.975L225.617 120.989V120.975H224.617ZM249.819 137.734L249.805 138.734H249.819V137.734ZM276.556 130.442L277.347 131.054L278.596 129.442H276.556V130.442ZM250.563 130.442V115.73H248.563V130.442H250.563ZM249.563 116.73H307.963V114.73H249.563V116.73ZM306.963 115.73V165.047H308.963V115.73H306.963ZM307.963 164.047H291.204V166.047H307.963V164.047ZM292.196 164.923L290.533 151.555L288.549 151.802L290.212 165.17L292.196 164.923ZM288.839 150.967C279.13 160.551 264.285 164.047 249.819 164.047V166.047C264.52 166.047 279.995 162.507 290.244 152.39L288.839 150.967ZM249.823 164.047C233.7 163.983 219.207 161.62 208.789 155.347C198.458 149.127 192.036 139.005 192.099 123.09L190.099 123.082C190.034 139.661 196.789 150.456 207.758 157.06C218.64 163.613 233.571 165.983 249.815 166.047L249.823 164.047ZM192.099 123.086V116.817H190.099V123.086H192.099ZM192.099 116.813C192.036 100.865 198.459 90.7284 208.789 84.5083C219.207 78.2362 233.699 75.8883 249.821 75.8564L249.817 73.8564C233.573 73.8885 218.641 76.2421 207.758 82.7949C196.788 89.3998 190.034 100.212 190.099 116.821L192.099 116.813ZM249.819 75.8564C264.657 75.8564 278.063 77.8826 288.195 83.1168C298.268 88.3209 305.135 96.7061 306.973 109.603L308.953 109.32C307.017 95.7353 299.716 86.8181 289.112 81.34C278.567 75.892 264.788 73.8564 249.819 73.8564V75.8564ZM307.963 108.461H272.334V110.461H307.963V108.461ZM273.141 108.87C270.869 105.772 267.583 103.742 263.437 102.672L262.938 104.609C266.724 105.586 269.578 107.394 271.528 110.053L273.141 108.87ZM263.437 102.672C259.375 101.624 254.811 101.105 249.819 101.105V103.105C254.677 103.105 259.068 103.61 262.938 104.609L263.437 102.672ZM249.805 101.106C242.916 101.202 236.357 101.884 231.524 104.418C229.084 105.698 227.063 107.459 225.674 109.862C224.286 112.263 223.567 115.236 223.617 118.878L225.617 118.851C225.571 115.489 226.234 112.889 227.405 110.863C228.574 108.841 230.288 107.325 232.453 106.189C236.832 103.894 242.969 103.201 249.833 103.105L249.805 101.106ZM223.617 118.864V120.975H225.617V118.864H223.617ZM223.617 120.962C223.567 124.634 224.286 127.623 225.673 130.03C227.063 132.441 229.085 134.199 231.527 135.471C236.36 137.988 242.921 138.638 249.805 138.734L249.833 136.734C242.964 136.638 236.828 135.977 232.451 133.697C230.287 132.57 228.575 131.058 227.406 129.031C226.235 127 225.57 124.384 225.617 120.989L223.617 120.962ZM249.819 138.734C256.434 138.734 261.96 138.545 266.481 137.509C271.04 136.465 274.643 134.545 277.347 131.054L275.766 129.83C273.416 132.863 270.271 134.589 266.034 135.56C261.76 136.539 256.444 136.734 249.819 136.734V138.734ZM276.556 129.442H249.563V131.442H276.556V129.442ZM376.981 130.442H375.981V131.442H376.981V130.442ZM376.981 115.73V114.73H375.981V115.73H376.981ZM435.381 115.73H436.381V114.73H435.381V115.73ZM435.381 165.047V166.047H436.381V165.047H435.381ZM418.622 165.047L417.63 165.17L417.739 166.047H418.622V165.047ZM416.959 151.678L417.951 151.555L417.701 149.541L416.256 150.967L416.959 151.678ZM377.237 165.047L377.233 166.047H377.237V165.047ZM318.517 123.086L319.517 123.09V123.086H318.517ZM318.517 116.817H319.517V116.813L318.517 116.817ZM377.237 74.8564V73.8564H377.235L377.237 74.8564ZM435.381 109.461V110.461H436.533L436.371 109.32L435.381 109.461ZM399.752 109.461L398.946 110.053L399.246 110.461H399.752V109.461ZM377.237 102.105V101.105L377.223 101.106L377.237 102.105ZM352.035 118.864H353.035L353.035 118.851L352.035 118.864ZM352.035 120.975L353.035 120.989V120.975H352.035ZM377.237 137.734L377.223 138.734H377.237V137.734ZM403.974 130.442L404.765 131.054L406.013 129.442H403.974V130.442ZM377.981 130.442V115.73H375.981V130.442H377.981ZM376.981 116.73H435.381V114.73H376.981V116.73ZM434.381 115.73V165.047H436.381V115.73H434.381ZM435.381 164.047H418.622V166.047H435.381V164.047ZM419.614 164.923L417.951 151.555L415.967 151.802L417.63 165.17L419.614 164.923ZM416.256 150.967C406.548 160.551 391.703 164.047 377.237 164.047V166.047C391.938 166.047 407.413 162.507 417.661 152.39L416.256 150.967ZM377.241 164.047C361.118 163.983 346.625 161.62 336.207 155.347C325.876 149.127 319.454 139.005 319.517 123.09L317.517 123.082C317.452 139.661 324.207 150.456 335.176 157.06C346.058 163.613 360.989 165.983 377.233 166.047L377.241 164.047ZM319.517 123.086V116.817H317.517V123.086H319.517ZM319.517 116.813C319.454 100.865 325.877 90.7284 336.207 84.5083C346.625 78.2362 361.117 75.8883 377.239 75.8564L377.235 73.8564C360.991 73.8885 346.059 76.2421 335.176 82.7949C324.206 89.3998 317.452 100.212 317.517 116.821L319.517 116.813ZM377.237 75.8564C392.075 75.8564 405.481 77.8826 415.612 83.1168C425.686 88.3209 432.553 96.7061 434.391 109.603L436.371 109.32C434.435 95.7353 427.134 86.8181 416.53 81.34C405.985 75.892 392.206 73.8564 377.237 73.8564V75.8564ZM435.381 108.461H399.752V110.461H435.381V108.461ZM400.559 108.87C398.287 105.772 395.001 103.742 390.855 102.672L390.356 104.609C394.142 105.586 396.996 107.394 398.946 110.053L400.559 108.87ZM390.855 102.672C386.793 101.624 382.229 101.105 377.237 101.105V103.105C382.095 103.105 386.486 103.61 390.356 104.609L390.855 102.672ZM377.223 101.106C370.334 101.202 363.775 101.884 358.942 104.418C356.502 105.698 354.481 107.459 353.092 109.862C351.704 112.263 350.985 115.236 351.035 118.878L353.035 118.851C352.989 115.489 353.652 112.889 354.823 110.863C355.992 108.841 357.706 107.325 359.871 106.189C364.25 103.894 370.387 103.201 377.251 103.105L377.223 101.106ZM351.035 118.864V120.975H353.035V118.864H351.035ZM351.035 120.962C350.985 124.634 351.703 127.623 353.091 130.03C354.481 132.441 356.503 134.199 358.945 135.471C363.778 137.988 370.339 138.638 377.223 138.734L377.251 136.734C370.382 136.638 364.246 135.977 359.869 133.697C357.705 132.57 355.992 131.058 354.824 129.031C353.653 127 352.988 124.384 353.035 120.989L351.035 120.962ZM377.237 138.734C383.852 138.734 389.378 138.545 393.899 137.509C398.458 136.465 402.061 134.545 404.765 131.054L403.184 129.83C400.834 132.863 397.689 134.589 393.452 135.56C389.178 136.539 383.862 136.734 377.237 136.734V138.734ZM403.974 129.442H376.981V131.442H403.974V129.442ZM450.796 163.064H449.796V164.064H450.796V163.064ZM450.796 77.0952V76.0952H449.796V77.0952H450.796ZM551.413 77.0952H552.413V76.0952H551.413V77.0952ZM551.413 99.0991V100.099H552.413V99.0991H551.413ZM484.314 99.0991V98.0991H483.314V99.0991H484.314ZM484.314 110.101H483.314V111.101H484.314V110.101ZM551.413 110.101H552.413V109.101H551.413V110.101ZM551.413 129.994V130.994H552.413V129.994H551.413ZM484.314 129.994V128.994H483.314V129.994H484.314ZM484.314 140.996H483.314V141.996H484.314V140.996ZM551.413 140.996H552.413V139.996H551.413V140.996ZM551.413 163.064V164.064H552.413V163.064H551.413ZM451.796 163.064V77.0952H449.796V163.064H451.796ZM450.796 78.0952H551.413V76.0952H450.796V78.0952ZM550.413 77.0952V99.0991H552.413V77.0952H550.413ZM551.413 98.0991H484.314V100.099H551.413V98.0991ZM483.314 99.0991V110.101H485.314V99.0991H483.314ZM484.314 111.101H551.413V109.101H484.314V111.101ZM550.413 110.101V129.994H552.413V110.101H550.413ZM551.413 128.994H484.314V130.994H551.413V128.994ZM483.314 129.994V140.996H485.314V129.994H483.314ZM484.314 141.996H551.413V139.996H484.314V141.996ZM550.413 140.996V163.064H552.413V140.996H550.413ZM551.413 162.064H450.796V164.064H551.413V162.064ZM569.259 77.0312V76.0312H568.259V77.0312H569.259ZM652.094 77.0312V78.0313L652.105 78.0312L652.094 77.0312ZM684.588 109.525L683.588 109.511L683.588 109.518V109.525H684.588ZM679.407 127.116L678.572 126.566L678.57 126.568L679.407 127.116ZM665.846 138.885L665.424 137.979L664.287 138.509L665.057 139.499L665.846 138.885ZM684.588 163V164H686.632L685.377 162.386L684.588 163ZM648.896 163L648.104 163.611L648.404 164H648.896V163ZM632.712 142.02L633.504 141.409L633.204 141.02H632.712V142.02ZM602.777 142.02V141.02H601.777V142.02H602.777ZM602.777 163V164H603.777V163H602.777ZM569.259 163H568.259V164H569.259V163ZM602.777 102.169V101.169H601.777V102.169H602.777ZM602.777 116.817H601.777V117.817H602.777V116.817ZM569.259 78.0312H652.094V76.0312H569.259V78.0312ZM652.105 78.0312C669.267 77.8453 683.836 92.2968 683.588 109.511L685.588 109.54C685.852 91.1895 670.357 75.8334 652.083 76.0313L652.105 78.0312ZM683.588 109.525C683.588 115.797 681.914 121.49 678.572 126.566L680.242 127.666C683.807 122.252 685.588 116.174 685.588 109.525H683.588ZM678.57 126.568C675.28 131.596 670.882 135.436 665.424 137.979L666.269 139.792C672.069 137.089 676.753 132.998 680.244 127.663L678.57 126.568ZM665.057 139.499L683.798 163.614L685.377 162.386L666.636 138.272L665.057 139.499ZM684.588 162H648.896V164H684.588V162ZM649.687 162.389L633.504 141.409L631.921 142.63L648.104 163.611L649.687 162.389ZM632.712 141.02H602.777V143.02H632.712V141.02ZM601.777 142.02V163H603.777V142.02H601.777ZM602.777 162H569.259V164H602.777V162ZM570.259 163V77.0312H568.259V163H570.259ZM643.65 101.169H602.777V103.169H643.65V101.169ZM601.777 102.169V116.817H603.777V102.169H601.777ZM602.777 117.817H643.65V115.817H602.777V117.817ZM643.65 117.817C645.954 117.817 647.938 117.014 649.539 115.414L648.124 113.999C646.911 115.213 645.441 115.817 643.65 115.817V117.817ZM649.539 115.414C651.195 113.757 652.006 111.777 652.006 109.525H650.006C650.006 111.24 649.41 112.714 648.124 113.999L649.539 115.414ZM652.006 109.525C652.006 104.879 648.296 101.169 643.65 101.169V103.169C647.192 103.169 650.006 105.984 650.006 109.525H652.006ZM33.8735 225.881H32.8735V226.881H33.8735V225.881ZM79.9282 213.408L79.2056 214.099L79.2209 214.115L79.237 214.131L79.9282 213.408ZM33.8735 211.233V210.233H32.8735V211.233H33.8735ZM0.355957 186.095V185.095H-0.644043V186.095H0.355957ZM83.1904 186.095V187.095L83.2013 187.095L83.1904 186.095ZM115.685 218.589L114.685 218.575L114.684 218.589L114.685 218.604L115.685 218.589ZM83.1904 251.083L83.2049 250.084L83.1977 250.083H83.1904V251.083ZM33.8735 251.083V250.083H32.8735V251.083H33.8735ZM33.8735 272.064V273.064H34.8735V272.064H33.8735ZM0.355957 272.064H-0.644043V273.064H0.355957V272.064ZM33.8735 226.881H74.811V224.881H33.8735V226.881ZM74.811 226.881C77.0555 226.881 79.038 226.075 80.6353 224.478L79.2211 223.063C78.004 224.28 76.5324 224.881 74.811 224.881V226.881ZM80.6353 224.478C82.2919 222.821 83.103 220.84 83.103 218.589H81.103C81.103 220.304 80.5069 221.778 79.2211 223.063L80.6353 224.478ZM83.103 218.589C83.103 216.283 82.2972 214.29 80.6194 212.686L79.237 214.131C80.5016 215.34 81.103 216.802 81.103 218.589H83.103ZM80.6509 212.717C79.0493 211.043 77.0585 210.233 74.811 210.233V212.233C76.5294 212.233 77.9927 212.831 79.2056 214.099L80.6509 212.717ZM74.811 210.233H33.8735V212.233H74.811V210.233ZM32.8735 211.233V225.881H34.8735V211.233H32.8735ZM0.355957 187.095H83.1904V185.095H0.355957V187.095ZM83.2013 187.095C100.363 186.909 114.932 201.361 114.685 218.575L116.684 218.604C116.948 200.253 101.454 184.897 83.1796 185.095L83.2013 187.095ZM114.685 218.604C114.932 235.759 100.36 250.331 83.2049 250.084L83.176 252.083C101.458 252.347 116.948 236.857 116.684 218.575L114.685 218.604ZM83.1904 250.083H33.8735V252.083H83.1904V250.083ZM32.8735 251.083V272.064H34.8735V251.083H32.8735ZM33.8735 271.064H0.355957V273.064H33.8735V271.064ZM1.35596 272.064V186.095H-0.644043V272.064H1.35596ZM124.832 185.967V184.967H123.832V185.967H124.832ZM158.349 185.967H159.349V184.967H158.349V185.967ZM158.349 271.936V272.936H159.349V271.936H158.349ZM124.832 271.936H123.832V272.936H124.832V271.936ZM124.832 186.967H158.349V184.967H124.832V186.967ZM157.349 185.967V271.936H159.349V185.967H157.349ZM158.349 270.936H124.832V272.936H158.349V270.936ZM125.832 271.936V185.967H123.832V271.936H125.832ZM251.098 236.308V235.308H250.398L250.158 235.966L251.098 236.308ZM285.447 236.308L286.445 236.38L286.523 235.308H285.447V236.308ZM226.919 274.047L226.917 275.047H226.919V274.047ZM168.2 232.086L169.2 232.09V232.086H168.2ZM168.2 225.817H169.2V225.813L168.2 225.817ZM226.919 183.856L226.922 182.856L226.915 182.856L226.919 183.856ZM285.447 221.596V222.596H286.523L286.445 221.523L285.447 221.596ZM251.098 221.596L250.161 221.944L250.403 222.596H251.098V221.596ZM226.919 211.169V210.169L226.905 210.17L226.919 211.169ZM201.781 227.928H202.781L202.781 227.915L201.781 227.928ZM201.781 230.039L202.781 230.053V230.039H201.781ZM226.919 246.798L226.905 247.798H226.919V246.798ZM251.098 237.308H285.447V235.308H251.098V237.308ZM284.45 236.235C283.419 250.411 276.726 259.547 266.518 265.192C256.238 270.876 242.334 273.047 226.919 273.047V275.047C242.464 275.047 256.768 272.868 267.485 266.942C278.273 260.978 285.364 251.244 286.445 236.38L284.45 236.235ZM226.921 273.047C210.864 273.015 196.371 270.667 185.938 264.395C175.59 258.174 169.137 248.036 169.2 232.09L167.2 232.082C167.134 248.694 173.922 259.505 184.907 266.109C195.806 272.661 210.737 275.015 226.917 275.047L226.921 273.047ZM169.2 232.086V225.817H167.2V232.086H169.2ZM169.2 225.813C169.137 209.9 175.589 199.778 185.938 193.557C196.372 187.284 210.865 184.92 226.923 184.856L226.915 182.856C210.735 182.921 195.805 185.291 184.907 191.843C173.923 198.446 167.134 209.241 167.2 225.821L169.2 225.813ZM226.917 184.856C242.333 184.888 256.237 187.075 266.518 192.759C276.727 198.404 283.42 207.526 284.45 221.668L286.445 221.523C285.364 206.69 278.272 196.973 267.485 191.009C256.769 185.084 242.465 182.889 226.922 182.856L226.917 184.856ZM285.447 220.596H251.098V222.596H285.447V220.596ZM252.036 221.248C250.344 216.69 246.916 213.905 242.497 212.278C238.115 210.665 232.712 210.169 226.919 210.169V212.169C232.641 212.169 237.76 212.665 241.806 214.155C245.814 215.63 248.718 218.058 250.161 221.944L252.036 221.248ZM226.905 210.17C220.053 210.266 213.508 210.916 208.683 213.433C206.245 214.705 204.226 216.463 202.837 218.874C201.45 221.281 200.732 224.269 200.781 227.942L202.781 227.915C202.735 224.519 203.4 221.903 204.57 219.872C205.737 217.845 207.448 216.333 209.608 215.206C213.977 212.926 220.097 212.265 226.933 212.169L226.905 210.17ZM200.781 227.928V230.039H202.781V227.928H200.781ZM200.781 230.025C200.731 233.668 201.451 236.64 202.837 239.041C204.226 241.444 206.244 243.205 208.68 244.485C213.505 247.019 220.048 247.702 226.905 247.798L226.933 245.798C220.102 245.702 213.981 245.01 209.61 242.714C207.449 241.579 205.737 240.062 204.569 238.04C203.399 236.015 202.735 233.415 202.781 230.053L200.781 230.025ZM226.919 247.798C232.714 247.798 238.133 247.286 242.523 245.656C246.949 244.014 250.379 241.211 252.038 236.649L250.158 235.966C248.747 239.848 245.845 242.29 241.827 243.781C237.773 245.286 232.638 245.798 226.919 245.798V247.798ZM361.438 272.064V273.064H362.438V272.064H361.438ZM327.92 272.064H326.92V273.064H327.92V272.064ZM327.92 213.344H328.92V212.344H327.92V213.344ZM288.07 213.344H287.07V214.344H288.07V213.344ZM288.07 186.095V185.095H287.07V186.095H288.07ZM401.288 186.095H402.288V185.095H401.288V186.095ZM401.288 213.344V214.344H402.288V213.344H401.288ZM361.438 213.344V212.344H360.438V213.344H361.438ZM361.438 271.064H327.92V273.064H361.438V271.064ZM328.92 272.064V213.344H326.92V272.064H328.92ZM327.92 212.344H288.07V214.344H327.92V212.344ZM289.07 213.344V186.095H287.07V213.344H289.07ZM288.07 187.095H401.288V185.095H288.07V187.095ZM400.288 186.095V213.344H402.288V186.095H400.288ZM401.288 212.344H361.438V214.344H401.288V212.344ZM360.438 213.344V272.064H362.438V213.344H360.438ZM496.531 230.039H495.531L495.531 230.053L496.531 230.039ZM496.531 185.967V184.967H495.531V185.967H496.531ZM530.113 185.967H531.113V184.967H530.113V185.967ZM530.113 232.15H529.113V232.154L530.113 232.15ZM471.393 274.047L471.391 275.047H471.395L471.393 274.047ZM412.673 232.15L413.673 232.154V232.15H412.673ZM412.673 185.967V184.967H411.673V185.967H412.673ZM446.191 185.967H447.191V184.967H446.191V185.967ZM446.191 230.039L447.191 230.048V230.039H446.191ZM471.393 246.798L471.379 247.798L471.393 247.798L471.407 247.798L471.393 246.798ZM497.531 230.039V185.967H495.531V230.039H497.531ZM496.531 186.967H530.113V184.967H496.531V186.967ZM529.113 185.967V232.15H531.113V185.967H529.113ZM529.113 232.154C529.175 248.067 522.723 258.189 512.375 264.402C501.942 270.667 487.449 273.015 471.391 273.047L471.395 275.047C487.576 275.015 502.507 272.661 513.405 266.117C524.389 259.521 531.178 248.726 531.113 232.146L529.113 232.154ZM471.395 273.047C455.338 273.015 440.844 270.667 430.411 264.402C420.063 258.189 413.611 248.067 413.673 232.154L411.673 232.146C411.608 248.726 418.397 259.521 429.381 266.117C440.28 272.661 455.21 275.015 471.391 275.047L471.395 273.047ZM413.673 232.15V185.967H411.673V232.15H413.673ZM412.673 186.967H446.191V184.967H412.673V186.967ZM445.191 185.967V230.039H447.191V185.967H445.191ZM445.191 230.03C445.158 233.702 445.885 236.689 447.275 239.095C448.668 241.504 450.686 243.262 453.124 244.534C457.95 247.052 464.495 247.702 471.379 247.798L471.407 245.798C464.539 245.702 458.419 245.041 454.049 242.761C451.89 241.634 450.179 240.122 449.007 238.094C447.832 236.062 447.16 233.445 447.191 230.048L445.191 230.03ZM471.407 247.798C478.26 247.702 484.805 247.052 489.63 244.534C492.068 243.262 494.087 241.504 495.476 239.094C496.862 236.687 497.581 233.698 497.531 230.025L495.531 230.053C495.577 233.448 494.913 236.064 493.743 238.095C492.575 240.122 490.865 241.634 488.705 242.761C484.335 245.041 478.215 245.702 471.379 245.798L471.407 247.798ZM545.208 186.031V185.031H544.208V186.031H545.208ZM628.043 186.031V187.031L628.054 187.031L628.043 186.031ZM660.537 218.525L659.537 218.511L659.537 218.518V218.525H660.537ZM655.356 236.116L654.521 235.566L654.519 235.568L655.356 236.116ZM641.795 247.885L641.373 246.979L640.236 247.509L641.006 248.499L641.795 247.885ZM660.537 272V273H662.581L661.327 271.386L660.537 272ZM624.845 272L624.053 272.611L624.353 273H624.845V272ZM608.662 251.02L609.453 250.409L609.153 250.02H608.662V251.02ZM578.726 251.02V250.02H577.726V251.02H578.726ZM578.726 272V273H579.726V272H578.726ZM545.208 272H544.208V273H545.208V272ZM578.726 211.169V210.169H577.726V211.169H578.726ZM578.726 225.817H577.726V226.817H578.726V225.817ZM545.208 187.031H628.043V185.031H545.208V187.031ZM628.054 187.031C645.216 186.845 659.785 201.297 659.537 218.511L661.537 218.54C661.801 200.189 646.307 184.833 628.032 185.031L628.054 187.031ZM659.537 218.525C659.537 224.797 657.864 230.49 654.521 235.566L656.191 236.666C659.757 231.252 661.537 225.174 661.537 218.525H659.537ZM654.519 235.568C651.23 240.596 646.831 244.436 641.373 246.979L642.218 248.792C648.018 246.089 652.702 241.998 656.193 236.663L654.519 235.568ZM641.006 248.499L659.748 272.614L661.327 271.386L642.585 247.272L641.006 248.499ZM660.537 271H624.845V273H660.537V271ZM625.637 271.389L609.453 250.409L607.87 251.63L624.053 272.611L625.637 271.389ZM608.662 250.02H578.726V252.02H608.662V250.02ZM577.726 251.02V272H579.726V251.02H577.726ZM578.726 271H545.208V273H578.726V271ZM546.208 272V186.031H544.208V272H546.208ZM619.6 210.169H578.726V212.169H619.6V210.169ZM577.726 211.169V225.817H579.726V211.169H577.726ZM578.726 226.817H619.6V224.817H578.726V226.817ZM619.6 226.817C621.903 226.817 623.887 226.014 625.488 224.414L624.074 222.999C622.86 224.213 621.39 224.817 619.6 224.817V226.817ZM625.488 224.414C627.144 222.757 627.956 220.777 627.956 218.525H625.956C625.956 220.24 625.359 221.714 624.074 222.999L625.488 224.414ZM627.956 218.525C627.956 213.879 624.246 210.169 619.6 210.169V212.169C623.141 212.169 625.956 214.984 625.956 218.525H627.956ZM670.963 272.064H669.963V273.064H670.963V272.064ZM670.963 186.095V185.095H669.963V186.095H670.963ZM771.58 186.095H772.58V185.095H771.58V186.095ZM771.58 208.099V209.099H772.58V208.099H771.58ZM704.481 208.099V207.099H703.481V208.099H704.481ZM704.481 219.101H703.481V220.101H704.481V219.101ZM771.58 219.101H772.58V218.101H771.58V219.101ZM771.58 238.994V239.994H772.58V238.994H771.58ZM704.481 238.994V237.994H703.481V238.994H704.481ZM704.481 249.996H703.481V250.996H704.481V249.996ZM771.58 249.996H772.58V248.996H771.58V249.996ZM771.58 272.064V273.064H772.58V272.064H771.58ZM671.963 272.064V186.095H669.963V272.064H671.963ZM670.963 187.095H771.58V185.095H670.963V187.095ZM770.58 186.095V208.099H772.58V186.095H770.58ZM771.58 207.099H704.481V209.099H771.58V207.099ZM703.481 208.099V219.101H705.481V208.099H703.481ZM704.481 220.101H771.58V218.101H704.481V220.101ZM770.58 219.101V238.994H772.58V219.101H770.58ZM771.58 237.994H704.481V239.994H771.58V237.994ZM703.481 238.994V249.996H705.481V238.994H703.481ZM704.481 250.996H771.58V248.996H704.481V250.996ZM770.58 249.996V272.064H772.58V249.996H770.58ZM771.58 271.064H670.963V273.064H771.58V271.064Z" fill="url(#paint1_linear_124_2)"/>
<defs>
<linearGradient id="paint0_linear_124_2" x1="386" y1="-173" x2="386" y2="420" gradientUnits="userSpaceOnUse">
<stop stop-color="#24345F"/>
<stop offset="1" stop-color="#020713" stop-opacity="0"/>
</linearGradient>
<linearGradient id="paint1_linear_124_2" x1="386" y1="-173" x2="386" y2="420" gradientUnits="userSpaceOnUse">
<stop stop-color="#FFB800"/>
<stop offset="1" stop-color="#998F77"/>
</linearGradient>
</defs>
</svg>
