<svg width="772" height="275" viewBox="0 0 772 275" fill="none" xmlns="http://www.w3.org/2000/svg">
<path d="M259.612 15.84C259.612 6.264 233.332 0.863997 233.332 14.328C233.332 28.728 267.172 19.296 267.172 38.808C267.172 47.16 256.804 53.928 244.06 53.928C239.812 53.928 235.852 53.136 232.396 51.84V41.688H233.692C233.692 51.264 259.972 56.736 259.972 43.2C259.972 28.872 226.204 38.232 226.204 18.792C226.204 10.44 236.5 3.6 249.244 3.6C253.492 3.6 257.524 4.392 260.908 5.688V15.84H259.612ZM306.354 54H270.858V52.776C273.018 52.776 274.89 50.904 274.89 48.672V9C274.89 6.768 273.018 4.896 270.858 4.896V3.6H306.354V11.736H305.058V11.664C305.058 7.92 302.106 4.896 298.362 4.896H284.97V28.224H290.73C294.402 28.224 297.426 25.2 297.426 21.456V21.384H298.722V36.288H297.426V36.216C297.426 32.472 294.402 29.52 290.73 29.52H284.97V52.776H298.362C302.106 52.776 305.058 49.752 305.058 46.008V45.936H306.354V54ZM346.15 54H310.654V52.776C312.814 52.776 314.686 50.904 314.686 48.672V9C314.686 6.768 312.814 4.896 310.654 4.896V3.6H346.15V11.736H344.854V11.664C344.854 7.92 341.902 4.896 338.158 4.896H324.766V28.224H330.526C334.198 28.224 337.222 25.2 337.222 21.456V21.384H338.518V36.288H337.222V36.216C337.222 32.472 334.198 29.52 330.526 29.52H324.766V52.776H338.158C341.902 52.776 344.854 49.752 344.854 46.008V45.936H346.15V54ZM379.625 54V54.072H375.593V52.776C377.825 52.776 379.625 50.904 379.625 48.744V4.968H372.209C368.465 4.968 365.441 7.92 365.441 11.664V11.736H364.217V3.6H405.185V11.736H403.889V11.664C403.889 7.92 400.865 4.896 397.121 4.896H389.705V48.672C389.705 50.904 391.505 52.776 393.737 52.776V54H379.625ZM426.955 54H408.811V52.776C410.971 52.776 412.843 50.904 412.843 48.672V9C412.843 6.768 410.971 4.896 408.811 4.896V3.6H426.955V4.896C424.723 4.896 422.923 6.768 422.923 9V28.152H443.659V9C443.659 6.768 441.859 4.896 439.627 4.896V3.6H457.843V4.896C455.611 4.896 453.811 6.768 453.811 9V48.672C453.811 50.904 455.611 52.776 457.843 52.776V54.072H439.627V52.776C441.859 52.776 443.659 50.904 443.659 48.744V29.52H422.923V48.672C422.923 50.904 424.723 52.776 426.955 52.776V54ZM497.604 54H462.108V52.776C464.268 52.776 466.14 50.904 466.14 48.672V9C466.14 6.768 464.268 4.896 462.108 4.896V3.6H497.604V11.736H496.308V11.664C496.308 7.92 493.356 4.896 489.612 4.896H476.22V28.224H481.98C485.652 28.224 488.676 25.2 488.676 21.456V21.384H489.972V36.288H488.676V36.216C488.676 32.472 485.652 29.52 481.98 29.52H476.22V52.776H489.612C493.356 52.776 496.308 49.752 496.308 46.008V45.936H497.604V54ZM88.8833 142.595H133.979C136.857 142.595 139.224 139.717 139.224 136.838C139.224 133.96 136.857 131.082 133.979 131.082H88.8833V142.595ZM127.71 97.5H88.8833V109.078H127.71C130.588 109.078 132.955 106.135 132.955 103.257C132.955 100.378 130.588 97.5 127.71 97.5ZM154.447 118.608C164.17 121.743 170.694 129.163 170.694 139.973C170.886 155.004 158.221 163.064 143.445 163.064H55.3657V77.0952H137.113C152.017 77.0312 164.618 85.1548 164.426 100.123C164.426 108.374 160.588 114.707 154.447 118.608ZM179.713 76.9673H213.231V162.936H179.713V76.9673ZM281.545 130.442V115.73H339.945V165.047H323.187L321.523 151.678C311.545 161.529 296.385 165.047 281.801 165.047C249.435 164.919 222.954 155.58 223.082 123.086V116.817C222.954 84.2593 249.435 74.9204 281.801 74.8564C311.609 74.8564 336.171 82.98 339.945 109.461H304.317C302.206 106.583 299.136 104.664 295.17 103.641C291.204 102.617 286.727 102.105 281.801 102.105C268.049 102.297 256.407 104.856 256.599 118.864V120.975C256.407 135.111 268.049 137.542 281.801 137.734C295.042 137.734 303.485 136.966 308.539 130.442H281.545ZM408.963 130.442V115.73H467.363V165.047H450.604L448.941 151.678C438.963 161.529 423.803 165.047 409.219 165.047C376.853 164.919 350.372 155.58 350.5 123.086V116.817C350.372 84.2593 376.853 74.9204 409.219 74.8564C439.027 74.8564 463.589 82.98 467.363 109.461H431.735C429.624 106.583 426.554 104.664 422.588 103.641C418.622 102.617 414.145 102.105 409.219 102.105C395.467 102.297 383.825 104.856 384.017 118.864V120.975C383.825 135.111 395.467 137.542 409.219 137.734C422.46 137.734 430.903 136.966 435.957 130.442H408.963ZM482.779 163.064V77.0952H583.396V99.0991H516.296V110.101H583.396V129.994H516.296V140.996H583.396V163.064H482.779ZM601.242 77.0312H684.076C701.794 76.8394 716.826 91.7432 716.57 109.525C716.57 115.986 714.843 121.871 711.389 127.116C707.999 132.297 703.458 136.263 697.829 138.885L716.57 163H680.878L664.695 142.02H634.759V163H601.242V77.0312ZM675.633 102.169H634.759V116.817H675.633C677.68 116.817 679.407 116.114 680.814 114.707C682.285 113.235 682.989 111.508 682.989 109.525C682.989 105.432 679.727 102.169 675.633 102.169ZM33.8735 225.881H74.811C76.7939 225.881 78.521 225.178 79.9282 223.771C81.3994 222.299 82.103 220.572 82.103 218.589C82.103 216.542 81.3994 214.815 79.9282 213.408C78.521 211.937 76.7939 211.233 74.811 211.233H33.8735V225.881ZM0.355957 186.095H83.1904C100.909 185.903 115.94 200.807 115.685 218.589C115.94 236.308 100.909 251.339 83.1904 251.083H33.8735V272.064H0.355957V186.095ZM124.832 185.967H158.349V271.936H124.832V185.967ZM251.098 236.308H285.447C283.336 265.348 257.878 274.047 226.919 274.047C194.681 273.983 168.072 264.644 168.2 232.086V225.817C168.072 193.323 194.681 183.984 226.919 183.856C257.878 183.92 283.336 192.62 285.447 221.596H251.098C247.964 213.152 238.433 211.169 226.919 211.169C213.231 211.361 201.589 213.792 201.781 227.928V230.039C201.589 244.047 213.231 246.606 226.919 246.798C238.433 246.798 248.028 244.751 251.098 236.308ZM361.438 272.064H327.92V213.344H288.07V186.095H401.288V213.344H361.438V272.064ZM496.531 230.039V185.967H530.113V232.15C530.241 264.644 503.631 273.983 471.393 274.047C439.155 273.983 412.545 264.644 412.673 232.15V185.967H446.191V230.039C446.063 244.175 457.641 246.606 471.393 246.798C485.082 246.606 496.723 244.175 496.531 230.039ZM545.208 186.031H628.043C645.761 185.839 660.793 200.743 660.537 218.525C660.537 224.986 658.81 230.871 655.356 236.116C651.966 241.297 647.424 245.263 641.795 247.885L660.537 272H624.845L608.662 251.02H578.726V272H545.208V186.031ZM619.6 211.169H578.726V225.817H619.6C621.646 225.817 623.374 225.114 624.781 223.707C626.252 222.235 626.956 220.508 626.956 218.525C626.956 214.432 623.693 211.169 619.6 211.169ZM670.963 272.064V186.095H771.58V208.099H704.481V219.101H771.58V238.994H704.481V249.996H771.58V272.064H670.963Z" fill="url(#paint0_linear_124_2)"/>
<path d="M259.612 15.84H258.612V16.84H259.612V15.84ZM232.396 51.84H231.396V52.533L232.045 52.7763L232.396 51.84ZM232.396 41.688V40.688H231.396V41.688H232.396ZM233.692 41.688H234.692V40.688H233.692V41.688ZM260.908 5.688H261.908V5.00015L261.266 4.75414L260.908 5.688ZM260.908 15.84V16.84H261.908V15.84H260.908ZM260.612 15.84C260.612 12.9577 258.644 10.5606 256.06 8.83845C253.45 7.09798 250.014 5.90118 246.602 5.45253C243.203 5.00547 239.695 5.28483 236.989 6.64389C234.212 8.03906 232.332 10.5578 232.332 14.328H234.332C234.332 11.3662 235.737 9.51094 237.887 8.43111C240.109 7.31516 243.171 7.01853 246.342 7.43546C249.5 7.85081 252.634 8.95801 254.951 10.5025C257.295 12.0654 258.612 13.9343 258.612 15.84H260.612ZM232.332 14.328C232.332 16.3429 232.931 17.9935 234.005 19.3381C235.063 20.6627 236.537 21.634 238.205 22.3941C241.501 23.896 245.88 24.7033 250.035 25.6272C254.279 26.5708 258.336 27.6413 261.335 29.6121C264.252 31.5284 266.172 34.2959 266.172 38.808H268.172C268.172 33.5641 265.862 30.1936 262.434 27.9406C259.088 25.7422 254.685 24.6122 250.469 23.6748C246.164 22.7177 242.083 21.9635 239.034 20.5741C237.53 19.8886 236.36 19.0818 235.567 18.0898C234.791 17.1178 234.332 15.9131 234.332 14.328H232.332ZM266.172 38.808C266.172 42.536 263.857 46.0418 259.848 48.663C255.847 51.2783 250.266 52.928 244.06 52.928V54.928C250.598 54.928 256.573 53.1937 260.942 50.337C265.303 47.4862 268.172 43.432 268.172 38.808H266.172ZM244.06 52.928C239.936 52.928 236.095 52.159 232.747 50.9037L232.045 52.7763C235.609 54.113 239.688 54.928 244.06 54.928V52.928ZM233.396 51.84V41.688H231.396V51.84H233.396ZM232.396 42.688H233.692V40.688H232.396V42.688ZM232.692 41.688C232.692 44.5696 234.66 46.9711 237.242 48.6988C239.853 50.445 243.288 51.6489 246.7 52.1023C250.1 52.554 253.609 52.2773 256.316 50.914C259.095 49.5142 260.972 46.9856 260.972 43.2H258.972C258.972 46.1824 257.564 48.0458 255.416 49.1278C253.195 50.2462 250.134 50.541 246.964 50.1197C243.806 49.7001 240.671 48.5865 238.354 47.0365C236.01 45.4679 234.692 43.5944 234.692 41.688H232.692ZM260.972 43.2C260.972 41.1933 260.374 39.5493 259.302 38.2099C258.245 36.8906 256.774 35.9229 255.11 35.1652C251.821 33.6681 247.452 32.8608 243.306 31.9369C239.071 30.9933 235.022 29.9229 232.029 27.9564C229.119 26.0442 227.204 23.2855 227.204 18.792H225.204C225.204 24.0185 227.51 27.3798 230.931 29.6279C234.27 31.8216 238.663 32.9517 242.871 33.8891C247.166 34.8462 251.239 35.6004 254.281 36.9855C255.783 37.669 256.95 38.4726 257.74 39.4599C258.515 40.427 258.972 41.6247 258.972 43.2H260.972ZM227.204 18.792C227.204 15.0596 229.506 11.5358 233.496 8.89826C237.478 6.26656 243.041 4.6 249.244 4.6V2.6C242.703 2.6 236.746 4.35344 232.394 7.22974C228.05 10.1002 225.204 14.1724 225.204 18.792H227.204ZM249.244 4.6C253.372 4.6 257.282 5.37026 260.55 6.62186L261.266 4.75414C257.766 3.41374 253.612 2.6 249.244 2.6V4.6ZM259.908 5.688V15.84H261.908V5.688H259.908ZM260.908 14.84H259.612V16.84H260.908V14.84ZM306.354 54V55H307.354V54H306.354ZM270.858 54H269.858V55H270.858V54ZM270.858 52.776V51.776H269.858V52.776H270.858ZM270.858 4.896H269.858V5.896H270.858V4.896ZM270.858 3.6V2.6H269.858V3.6H270.858ZM306.354 3.6H307.354V2.6H306.354V3.6ZM306.354 11.736V12.736H307.354V11.736H306.354ZM305.058 11.736H304.058V12.736H305.058V11.736ZM284.97 4.896V3.896H283.97V4.896H284.97ZM284.97 28.224H283.97V29.224H284.97V28.224ZM297.426 21.384V20.384H296.426V21.384H297.426ZM298.722 21.384H299.722V20.384H298.722V21.384ZM298.722 36.288V37.288H299.722V36.288H298.722ZM297.426 36.288H296.426V37.288H297.426V36.288ZM284.97 29.52V28.52H283.97V29.52H284.97ZM284.97 52.776H283.97V53.776H284.97V52.776ZM305.058 45.936V44.936H304.058V45.936H305.058ZM306.354 45.936H307.354V44.936H306.354V45.936ZM306.354 53H270.858V55H306.354V53ZM271.858 54V52.776H269.858V54H271.858ZM270.858 53.776C273.581 53.776 275.89 51.4448 275.89 48.672H273.89C273.89 50.3632 272.454 51.776 270.858 51.776V53.776ZM275.89 48.672V9H273.89V48.672H275.89ZM275.89 9C275.89 6.22718 273.581 3.896 270.858 3.896V5.896C272.454 5.896 273.89 7.30882 273.89 9H275.89ZM271.858 4.896V3.6H269.858V4.896H271.858ZM270.858 4.6H306.354V2.6H270.858V4.6ZM305.354 3.6V11.736H307.354V3.6H305.354ZM306.354 10.736H305.058V12.736H306.354V10.736ZM306.058 11.736V11.664H304.058V11.736H306.058ZM306.058 11.664C306.058 7.38173 302.672 3.896 298.362 3.896V5.896C301.539 5.896 304.058 8.45826 304.058 11.664H306.058ZM298.362 3.896H284.97V5.896H298.362V3.896ZM283.97 4.896V28.224H285.97V4.896H283.97ZM284.97 29.224H290.73V27.224H284.97V29.224ZM290.73 29.224C294.961 29.224 298.426 25.7453 298.426 21.456H296.426C296.426 24.6547 293.842 27.224 290.73 27.224V29.224ZM298.426 21.456V21.384H296.426V21.456H298.426ZM297.426 22.384H298.722V20.384H297.426V22.384ZM297.722 21.384V36.288H299.722V21.384H297.722ZM298.722 35.288H297.426V37.288H298.722V35.288ZM298.426 36.288V36.216H296.426V36.288H298.426ZM298.426 36.216C298.426 31.9127 294.947 28.52 290.73 28.52V30.52C293.856 30.52 296.426 33.0313 296.426 36.216H298.426ZM290.73 28.52H284.97V30.52H290.73V28.52ZM283.97 29.52V52.776H285.97V29.52H283.97ZM284.97 53.776H298.362V51.776H284.97V53.776ZM298.362 53.776C302.672 53.776 306.058 50.2903 306.058 46.008H304.058C304.058 49.2137 301.539 51.776 298.362 51.776V53.776ZM306.058 46.008V45.936H304.058V46.008H306.058ZM305.058 46.936H306.354V44.936H305.058V46.936ZM305.354 45.936V54H307.354V45.936H305.354ZM346.15 54V55H347.15V54H346.15ZM310.654 54H309.654V55H310.654V54ZM310.654 52.776V51.776H309.654V52.776H310.654ZM310.654 4.896H309.654V5.896H310.654V4.896ZM310.654 3.6V2.6H309.654V3.6H310.654ZM346.15 3.6H347.15V2.6H346.15V3.6ZM346.15 11.736V12.736H347.15V11.736H346.15ZM344.854 11.736H343.854V12.736H344.854V11.736ZM324.766 4.896V3.896H323.766V4.896H324.766ZM324.766 28.224H323.766V29.224H324.766V28.224ZM337.222 21.384V20.384H336.222V21.384H337.222ZM338.518 21.384H339.518V20.384H338.518V21.384ZM338.518 36.288V37.288H339.518V36.288H338.518ZM337.222 36.288H336.222V37.288H337.222V36.288ZM324.766 29.52V28.52H323.766V29.52H324.766ZM324.766 52.776H323.766V53.776H324.766V52.776ZM344.854 45.936V44.936H343.854V45.936H344.854ZM346.15 45.936H347.15V44.936H346.15V45.936ZM346.15 53H310.654V55H346.15V53ZM311.654 54V52.776H309.654V54H311.654ZM310.654 53.776C313.378 53.776 315.686 51.4448 315.686 48.672H313.686C313.686 50.3632 312.251 51.776 310.654 51.776V53.776ZM315.686 48.672V9H313.686V48.672H315.686ZM315.686 9C315.686 6.22718 313.378 3.896 310.654 3.896V5.896C312.251 5.896 313.686 7.30882 313.686 9H315.686ZM311.654 4.896V3.6H309.654V4.896H311.654ZM310.654 4.6H346.15V2.6H310.654V4.6ZM345.15 3.6V11.736H347.15V3.6H345.15ZM346.15 10.736H344.854V12.736H346.15V10.736ZM345.854 11.736V11.664H343.854V11.736H345.854ZM345.854 11.664C345.854 7.38173 342.469 3.896 338.158 3.896V5.896C341.336 5.896 343.854 8.45826 343.854 11.664H345.854ZM338.158 3.896H324.766V5.896H338.158V3.896ZM323.766 4.896V28.224H325.766V4.896H323.766ZM324.766 29.224H330.526V27.224H324.766V29.224ZM330.526 29.224C334.758 29.224 338.222 25.7453 338.222 21.456H336.222C336.222 24.6547 333.639 27.224 330.526 27.224V29.224ZM338.222 21.456V21.384H336.222V21.456H338.222ZM337.222 22.384H338.518V20.384H337.222V22.384ZM337.518 21.384V36.288H339.518V21.384H337.518ZM338.518 35.288H337.222V37.288H338.518V35.288ZM338.222 36.288V36.216H336.222V36.288H338.222ZM338.222 36.216C338.222 31.9127 334.744 28.52 330.526 28.52V30.52C333.653 30.52 336.222 33.0313 336.222 36.216H338.222ZM330.526 28.52H324.766V30.52H330.526V28.52ZM323.766 29.52V52.776H325.766V29.52H323.766ZM324.766 53.776H338.158V51.776H324.766V53.776ZM338.158 53.776C342.469 53.776 345.854 50.2903 345.854 46.008H343.854C343.854 49.2137 341.336 51.776 338.158 51.776V53.776ZM345.854 46.008V45.936H343.854V46.008H345.854ZM344.854 46.936H346.15V44.936H344.854V46.936ZM345.15 45.936V54H347.15V45.936H345.15ZM379.625 54V53H378.625V54H379.625ZM379.625 54.072V55.072H380.625V54.072H379.625ZM375.593 54.072H374.593V55.072H375.593V54.072ZM375.593 52.776V51.776H374.593V52.776H375.593ZM379.625 4.968H380.625V3.968H379.625V4.968ZM365.441 11.736V12.736H366.441V11.736H365.441ZM364.217 11.736H363.217V12.736H364.217V11.736ZM364.217 3.6V2.6H363.217V3.6H364.217ZM405.185 3.6H406.185V2.6H405.185V3.6ZM405.185 11.736V12.736H406.185V11.736H405.185ZM403.889 11.736H402.889V12.736H403.889V11.736ZM389.705 4.896V3.896H388.705V4.896H389.705ZM393.737 52.776H394.737V51.776H393.737V52.776ZM393.737 54V55H394.737V54H393.737ZM378.625 54V54.072H380.625V54H378.625ZM379.625 53.072H375.593V55.072H379.625V53.072ZM376.593 54.072V52.776H374.593V54.072H376.593ZM375.593 53.776C378.389 53.776 380.625 51.4447 380.625 48.744H378.625C378.625 50.3633 377.262 51.776 375.593 51.776V53.776ZM380.625 48.744V4.968H378.625V48.744H380.625ZM379.625 3.968H372.209V5.968H379.625V3.968ZM372.209 3.968C367.927 3.968 364.441 7.3538 364.441 11.664H366.441C366.441 8.4862 369.004 5.968 372.209 5.968V3.968ZM364.441 11.664V11.736H366.441V11.664H364.441ZM365.441 10.736H364.217V12.736H365.441V10.736ZM365.217 11.736V3.6H363.217V11.736H365.217ZM364.217 4.6H405.185V2.6H364.217V4.6ZM404.185 3.6V11.736H406.185V3.6H404.185ZM405.185 10.736H403.889V12.736H405.185V10.736ZM404.889 11.736V11.664H402.889V11.736H404.889ZM404.889 11.664C404.889 7.36771 401.418 3.896 397.121 3.896V5.896C400.313 5.896 402.889 8.47228 402.889 11.664H404.889ZM397.121 3.896H389.705V5.896H397.121V3.896ZM388.705 4.896V48.672H390.705V4.896H388.705ZM388.705 48.672C388.705 51.4332 390.93 53.776 393.737 53.776V51.776C392.08 51.776 390.705 50.3748 390.705 48.672H388.705ZM392.737 52.776V54H394.737V52.776H392.737ZM393.737 53H379.625V55H393.737V53ZM426.955 54V55H427.955V54H426.955ZM408.811 54H407.811V55H408.811V54ZM408.811 52.776V51.776H407.811V52.776H408.811ZM408.811 4.896H407.811V5.896H408.811V4.896ZM408.811 3.6V2.6H407.811V3.6H408.811ZM426.955 3.6H427.955V2.6H426.955V3.6ZM426.955 4.896V5.896H427.955V4.896H426.955ZM422.923 28.152H421.923V29.152H422.923V28.152ZM443.659 28.152V29.152H444.659V28.152H443.659ZM439.627 4.896H438.627V5.896H439.627V4.896ZM439.627 3.6V2.6H438.627V3.6H439.627ZM457.843 3.6H458.843V2.6H457.843V3.6ZM457.843 4.896V5.896H458.843V4.896H457.843ZM457.843 52.776H458.843V51.776H457.843V52.776ZM457.843 54.072V55.072H458.843V54.072H457.843ZM439.627 54.072H438.627V55.072H439.627V54.072ZM439.627 52.776V51.776H438.627V52.776H439.627ZM443.659 29.52H444.659V28.52H443.659V29.52ZM422.923 29.52V28.52H421.923V29.52H422.923ZM426.955 52.776H427.955V51.776H426.955V52.776ZM426.955 53H408.811V55H426.955V53ZM409.811 54V52.776H407.811V54H409.811ZM408.811 53.776C411.534 53.776 413.843 51.4448 413.843 48.672H411.843C411.843 50.3632 410.407 51.776 408.811 51.776V53.776ZM413.843 48.672V9H411.843V48.672H413.843ZM413.843 9C413.843 6.22718 411.534 3.896 408.811 3.896V5.896C410.407 5.896 411.843 7.30882 411.843 9H413.843ZM409.811 4.896V3.6H407.811V4.896H409.811ZM408.811 4.6H426.955V2.6H408.811V4.6ZM425.955 3.6V4.896H427.955V3.6H425.955ZM426.955 3.896C424.148 3.896 421.923 6.23885 421.923 9H423.923C423.923 7.29715 425.298 5.896 426.955 5.896V3.896ZM421.923 9V28.152H423.923V9H421.923ZM422.923 29.152H443.659V27.152H422.923V29.152ZM444.659 28.152V9H442.659V28.152H444.659ZM444.659 9C444.659 6.23885 442.434 3.896 439.627 3.896V5.896C441.284 5.896 442.659 7.29715 442.659 9H444.659ZM440.627 4.896V3.6H438.627V4.896H440.627ZM439.627 4.6H457.843V2.6H439.627V4.6ZM456.843 3.6V4.896H458.843V3.6H456.843ZM457.843 3.896C455.036 3.896 452.811 6.23885 452.811 9H454.811C454.811 7.29715 456.186 5.896 457.843 5.896V3.896ZM452.811 9V48.672H454.811V9H452.811ZM452.811 48.672C452.811 51.4332 455.036 53.776 457.843 53.776V51.776C456.186 51.776 454.811 50.3748 454.811 48.672H452.811ZM456.843 52.776V54.072H458.843V52.776H456.843ZM457.843 53.072H439.627V55.072H457.843V53.072ZM440.627 54.072V52.776H438.627V54.072H440.627ZM439.627 53.776C442.422 53.776 444.659 51.4447 444.659 48.744H442.659C442.659 50.3633 441.295 51.776 439.627 51.776V53.776ZM444.659 48.744V29.52H442.659V48.744H444.659ZM443.659 28.52H422.923V30.52H443.659V28.52ZM421.923 29.52V48.672H423.923V29.52H421.923ZM421.923 48.672C421.923 51.4332 424.148 53.776 426.955 53.776V51.776C425.298 51.776 423.923 50.3748 423.923 48.672H421.923ZM425.955 52.776V54H427.955V52.776H425.955ZM497.604 54V55H498.604V54H497.604ZM462.108 54H461.108V55H462.108V54ZM462.108 52.776V51.776H461.108V52.776H462.108ZM462.108 4.896H461.108V5.896H462.108V4.896ZM462.108 3.6V2.6H461.108V3.6H462.108ZM497.604 3.6H498.604V2.6H497.604V3.6ZM497.604 11.736V12.736H498.604V11.736H497.604ZM496.308 11.736H495.308V12.736H496.308V11.736ZM476.22 4.896V3.896H475.22V4.896H476.22ZM476.22 28.224H475.22V29.224H476.22V28.224ZM488.676 21.384V20.384H487.676V21.384H488.676ZM489.972 21.384H490.972V20.384H489.972V21.384ZM489.972 36.288V37.288H490.972V36.288H489.972ZM488.676 36.288H487.676V37.288H488.676V36.288ZM476.22 29.52V28.52H475.22V29.52H476.22ZM476.22 52.776H475.22V53.776H476.22V52.776ZM496.308 45.936V44.936H495.308V45.936H496.308ZM497.604 45.936H498.604V44.936H497.604V45.936ZM497.604 53H462.108V55H497.604V53ZM463.108 54V52.776H461.108V54H463.108ZM462.108 53.776C464.831 53.776 467.14 51.4448 467.14 48.672H465.14C465.14 50.3632 463.704 51.776 462.108 51.776V53.776ZM467.14 48.672V9H465.14V48.672H467.14ZM467.14 9C467.14 6.22718 464.831 3.896 462.108 3.896V5.896C463.704 5.896 465.14 7.30882 465.14 9H467.14ZM463.108 4.896V3.6H461.108V4.896H463.108ZM462.108 4.6H497.604V2.6H462.108V4.6ZM496.604 3.6V11.736H498.604V3.6H496.604ZM497.604 10.736H496.308V12.736H497.604V10.736ZM497.308 11.736V11.664H495.308V11.736H497.308ZM497.308 11.664C497.308 7.38173 493.922 3.896 489.612 3.896V5.896C492.789 5.896 495.308 8.45826 495.308 11.664H497.308ZM489.612 3.896H476.22V5.896H489.612V3.896ZM475.22 4.896V28.224H477.22V4.896H475.22ZM476.22 29.224H481.98V27.224H476.22V29.224ZM481.98 29.224C486.211 29.224 489.676 25.7453 489.676 21.456H487.676C487.676 24.6547 485.092 27.224 481.98 27.224V29.224ZM489.676 21.456V21.384H487.676V21.456H489.676ZM488.676 22.384H489.972V20.384H488.676V22.384ZM488.972 21.384V36.288H490.972V21.384H488.972ZM489.972 35.288H488.676V37.288H489.972V35.288ZM489.676 36.288V36.216H487.676V36.288H489.676ZM489.676 36.216C489.676 31.9127 486.197 28.52 481.98 28.52V30.52C485.106 30.52 487.676 33.0313 487.676 36.216H489.676ZM481.98 28.52H476.22V30.52H481.98V28.52ZM475.22 29.52V52.776H477.22V29.52H475.22ZM476.22 53.776H489.612V51.776H476.22V53.776ZM489.612 53.776C493.922 53.776 497.308 50.2903 497.308 46.008H495.308C495.308 49.2137 492.789 51.776 489.612 51.776V53.776ZM497.308 46.008V45.936H495.308V46.008H497.308ZM496.308 46.936H497.604V44.936H496.308V46.936ZM496.604 45.936V54H498.604V45.936H496.604ZM88.8833 142.595H87.8833V143.595H88.8833V142.595ZM88.8833 131.082V130.082H87.8833V131.082H88.8833ZM88.8833 97.5V96.5H87.8833V97.5H88.8833ZM88.8833 109.078H87.8833V110.078H88.8833V109.078ZM154.447 118.608L153.911 117.764L152.113 118.907L154.14 119.56L154.447 118.608ZM170.694 139.973H169.694L169.694 139.985L170.694 139.973ZM55.3657 163.064H54.3657V164.064H55.3657V163.064ZM55.3657 77.0952V76.0952H54.3657V77.0952H55.3657ZM137.113 77.0952V78.0952L137.117 78.0952L137.113 77.0952ZM164.426 100.123L163.426 100.11V100.123H164.426ZM88.8833 143.595H133.979V141.595H88.8833V143.595ZM133.979 143.595C135.763 143.595 137.331 142.705 138.431 141.457C139.528 140.212 140.224 138.543 140.224 136.838H138.224C138.224 138.013 137.736 139.221 136.93 140.135C136.127 141.047 135.073 141.595 133.979 141.595V143.595ZM140.224 136.838C140.224 135.134 139.528 133.465 138.431 132.219C137.331 130.972 135.763 130.082 133.979 130.082V132.082C135.073 132.082 136.127 132.63 136.93 133.542C137.736 134.455 138.224 135.664 138.224 136.838H140.224ZM133.979 130.082H88.8833V132.082H133.979V130.082ZM87.8833 131.082V142.595H89.8833V131.082H87.8833ZM127.71 96.5H88.8833V98.5H127.71V96.5ZM87.8833 97.5V109.078H89.8833V97.5H87.8833ZM88.8833 110.078H127.71V108.078H88.8833V110.078ZM127.71 110.078C129.502 110.078 131.071 109.164 132.167 107.902C133.261 106.643 133.955 104.959 133.955 103.257H131.955C131.955 104.433 131.466 105.66 130.657 106.591C129.85 107.52 128.796 108.078 127.71 108.078V110.078ZM133.955 103.257C133.955 101.553 133.26 99.883 132.162 98.6378C131.063 97.3905 129.494 96.5 127.71 96.5V98.5C128.804 98.5 129.858 99.0487 130.662 99.9603C131.467 100.874 131.955 102.083 131.955 103.257H133.955ZM154.14 119.56C163.514 122.582 169.694 129.661 169.694 139.973H171.694C171.694 128.665 164.826 120.903 154.754 117.657L154.14 119.56ZM169.694 139.985C169.786 147.183 166.815 152.662 162.067 156.367C157.292 160.094 150.665 162.064 143.445 162.064V164.064C151.002 164.064 158.094 162.005 163.298 157.944C168.529 153.861 171.794 147.794 171.694 139.96L169.694 139.985ZM143.445 162.064H55.3657V164.064H143.445V162.064ZM56.3657 163.064V77.0952H54.3657V163.064H56.3657ZM55.3657 78.0952H137.113V76.0952H55.3657V78.0952ZM137.117 78.0952C144.399 78.064 151.041 80.0346 155.815 83.7603C160.562 87.4649 163.518 92.9431 163.426 100.11L165.426 100.135C165.526 92.3342 162.277 86.2668 157.045 82.1837C151.841 78.1217 144.73 76.0625 137.109 76.0952L137.117 78.0952ZM163.426 100.123C163.426 108.023 159.77 114.041 153.911 117.764L154.984 119.452C161.406 115.372 165.426 108.725 165.426 100.123H163.426ZM179.713 76.9673V75.9673H178.713V76.9673H179.713ZM213.231 76.9673H214.231V75.9673H213.231V76.9673ZM213.231 162.936V163.936H214.231V162.936H213.231ZM179.713 162.936H178.713V163.936H179.713V162.936ZM179.713 77.9673H213.231V75.9673H179.713V77.9673ZM212.231 76.9673V162.936H214.231V76.9673H212.231ZM213.231 161.936H179.713V163.936H213.231V161.936ZM180.713 162.936V76.9673H178.713V162.936H180.713ZM281.545 130.442H280.545V131.442H281.545V130.442ZM281.545 115.73V114.73H280.545V115.73H281.545ZM339.945 115.73H340.945V114.73H339.945V115.73ZM339.945 165.047V166.047H340.945V165.047H339.945ZM323.187 165.047L322.194 165.17L322.303 166.047H323.187V165.047ZM321.523 151.678L322.516 151.555L322.265 149.541L320.821 150.967L321.523 151.678ZM281.801 165.047L281.797 166.047H281.801V165.047ZM223.082 123.086L224.082 123.09V123.086H223.082ZM223.082 116.817H224.082L224.082 116.813L223.082 116.817ZM281.801 74.8564V73.8564L281.799 73.8564L281.801 74.8564ZM339.945 109.461V110.461H341.098L340.935 109.32L339.945 109.461ZM304.317 109.461L303.51 110.053L303.81 110.461H304.317V109.461ZM281.801 102.105V101.105L281.787 101.106L281.801 102.105ZM256.599 118.864H257.599L257.599 118.851L256.599 118.864ZM256.599 120.975L257.599 120.989V120.975H256.599ZM281.801 137.734L281.787 138.734H281.801V137.734ZM308.539 130.442L309.329 131.054L310.578 129.442H308.539V130.442ZM282.545 130.442V115.73H280.545V130.442H282.545ZM281.545 116.73H339.945V114.73H281.545V116.73ZM338.945 115.73V165.047H340.945V115.73H338.945ZM339.945 164.047H323.187V166.047H339.945V164.047ZM324.179 164.923L322.516 151.555L320.531 151.802L322.194 165.17L324.179 164.923ZM320.821 150.967C311.112 160.551 296.268 164.047 281.801 164.047V166.047C296.503 166.047 311.977 162.507 322.226 152.39L320.821 150.967ZM281.805 164.047C265.683 163.983 251.19 161.62 240.772 155.347C230.441 149.127 224.019 139.005 224.082 123.09L222.082 123.082C222.016 139.661 228.771 150.456 239.74 157.06C250.623 163.613 265.554 165.983 281.797 166.047L281.805 164.047ZM224.082 123.086V116.817H222.082V123.086H224.082ZM224.082 116.813C224.019 100.865 230.441 90.7284 240.772 84.5083C251.189 78.2362 265.681 75.8883 281.803 75.8564L281.799 73.8564C265.555 73.8886 250.624 76.2421 239.74 82.7949C228.771 89.3998 222.016 100.212 222.082 116.821L224.082 116.813ZM281.801 75.8564C296.639 75.8564 310.045 77.8826 320.177 83.1168C330.25 88.3209 337.117 96.7061 338.955 109.603L340.935 109.32C338.999 95.7353 331.698 86.8181 321.095 81.34C310.55 75.892 296.771 73.8564 281.801 73.8564V75.8564ZM339.945 108.461H304.317V110.461H339.945V108.461ZM305.123 108.87C302.851 105.772 299.565 103.742 295.42 102.672L294.92 104.609C298.706 105.586 301.561 107.394 303.51 110.053L305.123 108.87ZM295.42 102.672C291.357 101.624 286.794 101.105 281.801 101.105V103.105C286.659 103.105 291.051 103.61 294.92 104.609L295.42 102.672ZM281.787 101.106C274.899 101.202 268.339 101.884 263.507 104.418C261.066 105.698 259.046 107.459 257.656 109.862C256.269 112.263 255.549 115.236 255.599 118.878L257.599 118.851C257.553 115.489 258.217 112.889 259.388 110.863C260.557 108.841 262.27 107.325 264.435 106.189C268.814 103.894 274.951 103.201 281.815 103.105L281.787 101.106ZM255.599 118.864V120.975H257.599V118.864H255.599ZM255.599 120.962C255.549 124.634 256.268 127.623 257.656 130.03C259.046 132.441 261.067 134.199 263.509 135.471C268.342 137.988 274.903 138.638 281.787 138.734L281.815 136.734C274.947 136.638 268.811 135.977 264.433 133.697C262.269 132.57 260.557 131.058 259.388 129.031C258.218 127 257.553 124.384 257.599 120.989L255.599 120.962ZM281.801 138.734C288.417 138.734 293.942 138.545 298.464 137.509C303.022 136.465 306.625 134.545 309.329 131.054L307.748 129.83C305.398 132.863 302.253 134.589 298.017 135.56C293.743 136.539 288.427 136.734 281.801 136.734V138.734ZM308.539 129.442H281.545V131.442H308.539V129.442ZM408.963 130.442H407.963V131.442H408.963V130.442ZM408.963 115.73V114.73H407.963V115.73H408.963ZM467.363 115.73H468.363V114.73H467.363V115.73ZM467.363 165.047V166.047H468.363V165.047H467.363ZM450.604 165.047L449.612 165.17L449.721 166.047H450.604V165.047ZM448.941 151.678L449.934 151.555L449.683 149.541L448.239 150.967L448.941 151.678ZM409.219 165.047L409.215 166.047H409.219V165.047ZM350.5 123.086L351.5 123.09V123.086H350.5ZM350.5 116.817H351.5L351.5 116.813L350.5 116.817ZM409.219 74.8564V73.8564L409.217 73.8564L409.219 74.8564ZM467.363 109.461V110.461H468.516L468.353 109.32L467.363 109.461ZM431.735 109.461L430.928 110.053L431.228 110.461H431.735V109.461ZM409.219 102.105V101.105L409.205 101.106L409.219 102.105ZM384.017 118.864H385.017L385.017 118.851L384.017 118.864ZM384.017 120.975L385.017 120.989V120.975H384.017ZM409.219 137.734L409.205 138.734H409.219V137.734ZM435.957 130.442L436.747 131.054L437.996 129.442H435.957V130.442ZM409.963 130.442V115.73H407.963V130.442H409.963ZM408.963 116.73H467.363V114.73H408.963V116.73ZM466.363 115.73V165.047H468.363V115.73H466.363ZM467.363 164.047H450.604V166.047H467.363V164.047ZM451.597 164.923L449.934 151.555L447.949 151.802L449.612 165.17L451.597 164.923ZM448.239 150.967C438.53 160.551 423.686 164.047 409.219 164.047V166.047C423.921 166.047 439.395 162.507 449.644 152.39L448.239 150.967ZM409.223 164.047C393.101 163.983 378.608 161.62 368.19 155.347C357.859 149.127 351.437 139.005 351.5 123.09L349.5 123.082C349.434 139.661 356.189 150.456 367.158 157.06C378.041 163.613 392.972 165.983 409.215 166.047L409.223 164.047ZM351.5 123.086V116.817H349.5V123.086H351.5ZM351.5 116.813C351.437 100.865 357.859 90.7284 368.19 84.5083C378.607 78.2362 393.099 75.8883 409.221 75.8564L409.217 73.8564C392.973 73.8886 378.041 76.2421 367.158 82.7949C356.189 89.3998 349.434 100.212 349.5 116.821L351.5 116.813ZM409.219 75.8564C424.057 75.8564 437.463 77.8826 447.595 83.1168C457.668 88.3209 464.535 96.7061 466.373 109.603L468.353 109.32C466.417 95.7353 459.116 86.8181 448.513 81.34C437.968 75.892 424.189 73.8564 409.219 73.8564V75.8564ZM467.363 108.461H431.735V110.461H467.363V108.461ZM432.541 108.87C430.269 105.772 426.983 103.742 422.838 102.672L422.338 104.609C426.124 105.586 428.979 107.394 430.928 110.053L432.541 108.87ZM422.838 102.672C418.775 101.624 414.212 101.105 409.219 101.105V103.105C414.077 103.105 418.469 103.61 422.338 104.609L422.838 102.672ZM409.205 101.106C402.317 101.202 395.757 101.884 390.925 104.418C388.484 105.698 386.464 107.459 385.074 109.862C383.687 112.263 382.967 115.236 383.017 118.878L385.017 118.851C384.971 115.489 385.635 112.889 386.806 110.863C387.975 108.841 389.688 107.325 391.853 106.189C396.232 103.894 402.369 103.201 409.233 103.105L409.205 101.106ZM383.017 118.864V120.975H385.017V118.864H383.017ZM383.017 120.962C382.967 124.634 383.686 127.623 385.074 130.03C386.464 132.441 388.485 134.199 390.927 135.471C395.76 137.988 402.321 138.638 409.205 138.734L409.233 136.734C402.365 136.638 396.229 135.977 391.851 133.697C389.687 132.57 387.975 131.058 386.806 129.031C385.636 127 384.971 124.384 385.017 120.989L383.017 120.962ZM409.219 138.734C415.835 138.734 421.36 138.545 425.882 137.509C430.44 136.465 434.043 134.545 436.747 131.054L435.166 129.83C432.816 132.863 429.671 134.589 425.435 135.56C421.161 136.539 415.845 136.734 409.219 136.734V138.734ZM435.957 129.442H408.963V131.442H435.957V129.442ZM482.779 163.064H481.779V164.064H482.779V163.064ZM482.779 77.0952V76.0952H481.779V77.0952H482.779ZM583.396 77.0952H584.396V76.0952H583.396V77.0952ZM583.396 99.0991V100.099H584.396V99.0991H583.396ZM516.296 99.0991V98.0991H515.296V99.0991H516.296ZM516.296 110.101H515.296V111.101H516.296V110.101ZM583.396 110.101H584.396V109.101H583.396V110.101ZM583.396 129.994V130.994H584.396V129.994H583.396ZM516.296 129.994V128.994H515.296V129.994H516.296ZM516.296 140.996H515.296V141.996H516.296V140.996ZM583.396 140.996H584.396V139.996H583.396V140.996ZM583.396 163.064V164.064H584.396V163.064H583.396ZM483.779 163.064V77.0952H481.779V163.064H483.779ZM482.779 78.0952H583.396V76.0952H482.779V78.0952ZM582.396 77.0952V99.0991H584.396V77.0952H582.396ZM583.396 98.0991H516.296V100.099H583.396V98.0991ZM515.296 99.0991V110.101H517.296V99.0991H515.296ZM516.296 111.101H583.396V109.101H516.296V111.101ZM582.396 110.101V129.994H584.396V110.101H582.396ZM583.396 128.994H516.296V130.994H583.396V128.994ZM515.296 129.994V140.996H517.296V129.994H515.296ZM516.296 141.996H583.396V139.996H516.296V141.996ZM582.396 140.996V163.064H584.396V140.996H582.396ZM583.396 162.064H482.779V164.064H583.396V162.064ZM601.242 77.0312V76.0312H600.242V77.0312H601.242ZM684.076 77.0312V78.0313L684.087 78.0312L684.076 77.0312ZM716.57 109.525L715.57 109.511L715.57 109.518V109.525H716.57ZM711.389 127.116L710.554 126.566L710.552 126.568L711.389 127.116ZM697.829 138.885L697.406 137.979L696.269 138.509L697.039 139.499L697.829 138.885ZM716.57 163V164H718.614L717.36 162.386L716.57 163ZM680.878 163L680.086 163.611L680.386 164H680.878V163ZM664.695 142.02L665.487 141.409L665.186 141.02H664.695V142.02ZM634.759 142.02V141.02H633.759V142.02H634.759ZM634.759 163V164H635.759V163H634.759ZM601.242 163H600.242V164H601.242V163ZM634.759 102.169V101.169H633.759V102.169H634.759ZM634.759 116.817H633.759V117.817H634.759V116.817ZM601.242 78.0312H684.076V76.0312H601.242V78.0312ZM684.087 78.0312C701.249 77.8453 715.818 92.2968 715.57 109.511L717.57 109.54C717.834 91.1895 702.34 75.8334 684.065 76.0313L684.087 78.0312ZM715.57 109.525C715.57 115.797 713.897 121.49 710.554 126.566L712.224 127.666C715.79 122.252 717.57 116.174 717.57 109.525H715.57ZM710.552 126.568C707.263 131.596 702.864 135.436 697.406 137.979L698.251 139.792C704.051 137.089 708.735 132.998 712.226 127.663L710.552 126.568ZM697.039 139.499L715.781 163.614L717.36 162.386L698.618 138.272L697.039 139.499ZM716.57 162H680.878V164H716.57V162ZM681.67 162.389L665.487 141.409L663.903 142.63L680.086 163.611L681.67 162.389ZM664.695 141.02H634.759V143.02H664.695V141.02ZM633.759 142.02V163H635.759V142.02H633.759ZM634.759 162H601.242V164H634.759V162ZM602.242 163V77.0312H600.242V163H602.242ZM675.633 101.169H634.759V103.169H675.633V101.169ZM633.759 102.169V116.817H635.759V102.169H633.759ZM634.759 117.817H675.633V115.817H634.759V117.817ZM675.633 117.817C677.936 117.817 679.92 117.014 681.521 115.414L680.107 113.999C678.893 115.213 677.423 115.817 675.633 115.817V117.817ZM681.521 115.414C683.178 113.757 683.989 111.777 683.989 109.525H681.989C681.989 111.24 681.393 112.714 680.107 113.999L681.521 115.414ZM683.989 109.525C683.989 104.879 680.279 101.169 675.633 101.169V103.169C679.174 103.169 681.989 105.984 681.989 109.525H683.989ZM33.8735 225.881H32.8735V226.881H33.8735V225.881ZM79.9282 213.408L79.2056 214.099L79.2209 214.115L79.237 214.131L79.9282 213.408ZM33.8735 211.233V210.233H32.8735V211.233H33.8735ZM0.355957 186.095V185.095H-0.644043V186.095H0.355957ZM83.1904 186.095V187.095L83.2013 187.095L83.1904 186.095ZM115.685 218.589L114.685 218.575L114.684 218.589L114.685 218.604L115.685 218.589ZM83.1904 251.083L83.2049 250.084L83.1976 250.083H83.1904V251.083ZM33.8735 251.083V250.083H32.8735V251.083H33.8735ZM33.8735 272.064V273.064H34.8735V272.064H33.8735ZM0.355957 272.064H-0.644043V273.064H0.355957V272.064ZM33.8735 226.881H74.811V224.881H33.8735V226.881ZM74.811 226.881C77.0555 226.881 79.038 226.075 80.6353 224.478L79.2211 223.063C78.004 224.28 76.5324 224.881 74.811 224.881V226.881ZM80.6353 224.478C82.2919 222.821 83.103 220.84 83.103 218.589H81.103C81.103 220.304 80.5069 221.778 79.2211 223.063L80.6353 224.478ZM83.103 218.589C83.103 216.283 82.2972 214.29 80.6194 212.686L79.237 214.131C80.5016 215.34 81.103 216.802 81.103 218.589H83.103ZM80.6509 212.717C79.0493 211.043 77.0585 210.233 74.811 210.233V212.233C76.5293 212.233 77.9927 212.831 79.2056 214.099L80.6509 212.717ZM74.811 210.233H33.8735V212.233H74.811V210.233ZM32.8735 211.233V225.881H34.8735V211.233H32.8735ZM0.355957 187.095H83.1904V185.095H0.355957V187.095ZM83.2013 187.095C100.363 186.909 114.932 201.361 114.685 218.575L116.684 218.604C116.948 200.253 101.454 184.897 83.1796 185.095L83.2013 187.095ZM114.685 218.604C114.932 235.759 100.36 250.331 83.2049 250.084L83.176 252.083C101.458 252.347 116.948 236.857 116.684 218.575L114.685 218.604ZM83.1904 250.083H33.8735V252.083H83.1904V250.083ZM32.8735 251.083V272.064H34.8735V251.083H32.8735ZM33.8735 271.064H0.355957V273.064H33.8735V271.064ZM1.35596 272.064V186.095H-0.644043V272.064H1.35596ZM124.832 185.967V184.967H123.832V185.967H124.832ZM158.349 185.967H159.349V184.967H158.349V185.967ZM158.349 271.936V272.936H159.349V271.936H158.349ZM124.832 271.936H123.832V272.936H124.832V271.936ZM124.832 186.967H158.349V184.967H124.832V186.967ZM157.349 185.967V271.936H159.349V185.967H157.349ZM158.349 270.936H124.832V272.936H158.349V270.936ZM125.832 271.936V185.967H123.832V271.936H125.832ZM251.098 236.308V235.308H250.398L250.158 235.966L251.098 236.308ZM285.447 236.308L286.445 236.38L286.523 235.308H285.447V236.308ZM226.919 274.047L226.917 275.047H226.919V274.047ZM168.2 232.086L169.2 232.09V232.086H168.2ZM168.2 225.817H169.2L169.2 225.813L168.2 225.817ZM226.919 183.856L226.921 182.856L226.915 182.856L226.919 183.856ZM285.447 221.596V222.596H286.523L286.445 221.523L285.447 221.596ZM251.098 221.596L250.161 221.944L250.403 222.596H251.098V221.596ZM226.919 211.169V210.169L226.905 210.17L226.919 211.169ZM201.781 227.928H202.781L202.781 227.915L201.781 227.928ZM201.781 230.039L202.781 230.053V230.039H201.781ZM226.919 246.798L226.905 247.798H226.919V246.798ZM251.098 237.308H285.447V235.308H251.098V237.308ZM284.45 236.235C283.42 250.411 276.726 259.547 266.518 265.192C256.238 270.876 242.334 273.047 226.919 273.047V275.047C242.464 275.047 256.768 272.868 267.485 266.942C278.273 260.978 285.364 251.244 286.445 236.38L284.45 236.235ZM226.921 273.047C210.864 273.015 196.371 270.667 185.937 264.395C175.59 258.174 169.137 248.036 169.2 232.09L167.2 232.082C167.134 248.694 173.922 259.505 184.907 266.109C195.806 272.661 210.737 275.015 226.917 275.047L226.921 273.047ZM169.2 232.086V225.817H167.2V232.086H169.2ZM169.2 225.813C169.137 209.9 175.589 199.778 185.937 193.557C196.372 187.284 210.865 184.92 226.923 184.856L226.915 182.856C210.735 182.921 195.805 185.291 184.907 191.843C173.923 198.446 167.134 209.241 167.2 225.821L169.2 225.813ZM226.917 184.856C242.333 184.888 256.237 187.075 266.518 192.759C276.727 198.404 283.42 207.526 284.45 221.668L286.445 221.523C285.364 206.69 278.272 196.973 267.485 191.009C256.769 185.084 242.465 182.889 226.921 182.856L226.917 184.856ZM285.447 220.596H251.098V222.596H285.447V220.596ZM252.036 221.248C250.344 216.69 246.916 213.905 242.497 212.278C238.115 210.665 232.712 210.169 226.919 210.169V212.169C232.641 212.169 237.76 212.665 241.806 214.155C245.814 215.63 248.718 218.058 250.161 221.944L252.036 221.248ZM226.905 210.17C220.053 210.266 213.508 210.916 208.683 213.433C206.245 214.705 204.226 216.463 202.837 218.874C201.45 221.281 200.731 224.269 200.781 227.942L202.781 227.915C202.735 224.519 203.4 221.903 204.57 219.872C205.737 217.845 207.448 216.333 209.608 215.206C213.977 212.926 220.097 212.265 226.933 212.169L226.905 210.17ZM200.781 227.928V230.039H202.781V227.928H200.781ZM200.781 230.025C200.731 233.668 201.451 236.64 202.837 239.041C204.226 241.444 206.244 243.205 208.68 244.485C213.505 247.019 220.048 247.702 226.905 247.798L226.933 245.798C220.102 245.702 213.981 245.01 209.61 242.714C207.449 241.579 205.737 240.062 204.569 238.04C203.399 236.015 202.735 233.415 202.781 230.053L200.781 230.025ZM226.919 247.798C232.714 247.798 238.133 247.286 242.523 245.656C246.949 244.014 250.379 241.211 252.038 236.649L250.158 235.966C248.747 239.848 245.845 242.29 241.827 243.782C237.773 245.286 232.638 245.798 226.919 245.798V247.798ZM361.438 272.064V273.064H362.438V272.064H361.438ZM327.92 272.064H326.92V273.064H327.92V272.064ZM327.92 213.344H328.92V212.344H327.92V213.344ZM288.07 213.344H287.07V214.344H288.07V213.344ZM288.07 186.095V185.095H287.07V186.095H288.07ZM401.288 186.095H402.288V185.095H401.288V186.095ZM401.288 213.344V214.344H402.288V213.344H401.288ZM361.438 213.344V212.344H360.438V213.344H361.438ZM361.438 271.064H327.92V273.064H361.438V271.064ZM328.92 272.064V213.344H326.92V272.064H328.92ZM327.92 212.344H288.07V214.344H327.92V212.344ZM289.07 213.344V186.095H287.07V213.344H289.07ZM288.07 187.095H401.288V185.095H288.07V187.095ZM400.288 186.095V213.344H402.288V186.095H400.288ZM401.288 212.344H361.438V214.344H401.288V212.344ZM360.438 213.344V272.064H362.438V213.344H360.438ZM496.531 230.039H495.531L495.531 230.053L496.531 230.039ZM496.531 185.967V184.967H495.531V185.967H496.531ZM530.113 185.967H531.113V184.967H530.113V185.967ZM530.113 232.15H529.113L529.113 232.154L530.113 232.15ZM471.393 274.047L471.391 275.047L471.395 275.047L471.393 274.047ZM412.673 232.15L413.673 232.154V232.15H412.673ZM412.673 185.967V184.967H411.673V185.967H412.673ZM446.191 185.967H447.191V184.967H446.191V185.967ZM446.191 230.039L447.191 230.048V230.039H446.191ZM471.393 246.798L471.379 247.798L471.393 247.798L471.407 247.798L471.393 246.798ZM497.531 230.039V185.967H495.531V230.039H497.531ZM496.531 186.967H530.113V184.967H496.531V186.967ZM529.113 185.967V232.15H531.113V185.967H529.113ZM529.113 232.154C529.175 248.067 522.723 258.189 512.375 264.402C501.942 270.667 487.449 273.015 471.391 273.047L471.395 275.047C487.576 275.015 502.507 272.661 513.405 266.117C524.389 259.521 531.178 248.726 531.113 232.146L529.113 232.154ZM471.395 273.047C455.338 273.015 440.844 270.667 430.411 264.402C420.063 258.189 413.611 248.067 413.673 232.154L411.673 232.146C411.608 248.726 418.397 259.521 429.381 266.117C440.28 272.661 455.21 275.015 471.391 275.047L471.395 273.047ZM413.673 232.15V185.967H411.673V232.15H413.673ZM412.673 186.967H446.191V184.967H412.673V186.967ZM445.191 185.967V230.039H447.191V185.967H445.191ZM445.191 230.03C445.158 233.702 445.885 236.689 447.275 239.095C448.668 241.504 450.686 243.262 453.124 244.534C457.95 247.052 464.495 247.702 471.379 247.798L471.407 245.798C464.539 245.702 458.419 245.041 454.049 242.761C451.89 241.634 450.179 240.122 449.007 238.094C447.832 236.062 447.16 233.445 447.191 230.048L445.191 230.03ZM471.407 247.798C478.26 247.702 484.805 247.052 489.63 244.534C492.068 243.262 494.087 241.504 495.476 239.094C496.862 236.687 497.581 233.698 497.531 230.025L495.531 230.053C495.577 233.448 494.913 236.064 493.743 238.095C492.575 240.122 490.865 241.634 488.705 242.761C484.335 245.041 478.215 245.702 471.379 245.798L471.407 247.798ZM545.208 186.031V185.031H544.208V186.031H545.208ZM628.043 186.031V187.031L628.054 187.031L628.043 186.031ZM660.537 218.525L659.537 218.511L659.537 218.518V218.525H660.537ZM655.356 236.116L654.521 235.566L654.519 235.568L655.356 236.116ZM641.795 247.885L641.373 246.979L640.236 247.509L641.006 248.499L641.795 247.885ZM660.537 272V273H662.581L661.327 271.386L660.537 272ZM624.845 272L624.053 272.611L624.353 273H624.845V272ZM608.662 251.02L609.453 250.409L609.153 250.02H608.662V251.02ZM578.726 251.02V250.02H577.726V251.02H578.726ZM578.726 272V273H579.726V272H578.726ZM545.208 272H544.208V273H545.208V272ZM578.726 211.169V210.169H577.726V211.169H578.726ZM578.726 225.817H577.726V226.817H578.726V225.817ZM545.208 187.031H628.043V185.031H545.208V187.031ZM628.054 187.031C645.216 186.845 659.785 201.297 659.537 218.511L661.537 218.54C661.801 200.189 646.307 184.833 628.032 185.031L628.054 187.031ZM659.537 218.525C659.537 224.797 657.864 230.49 654.521 235.566L656.191 236.666C659.757 231.252 661.537 225.174 661.537 218.525H659.537ZM654.519 235.568C651.23 240.596 646.831 244.436 641.373 246.979L642.218 248.792C648.018 246.089 652.702 241.998 656.193 236.663L654.519 235.568ZM641.006 248.499L659.748 272.614L661.327 271.386L642.585 247.272L641.006 248.499ZM660.537 271H624.845V273H660.537V271ZM625.637 271.389L609.453 250.409L607.87 251.63L624.053 272.611L625.637 271.389ZM608.662 250.02H578.726V252.02H608.662V250.02ZM577.726 251.02V272H579.726V251.02H577.726ZM578.726 271H545.208V273H578.726V271ZM546.208 272V186.031H544.208V272H546.208ZM619.6 210.169H578.726V212.169H619.6V210.169ZM577.726 211.169V225.817H579.726V211.169H577.726ZM578.726 226.817H619.6V224.817H578.726V226.817ZM619.6 226.817C621.903 226.817 623.887 226.014 625.488 224.414L624.074 222.999C622.86 224.213 621.39 224.817 619.6 224.817V226.817ZM625.488 224.414C627.144 222.757 627.956 220.777 627.956 218.525H625.956C625.956 220.24 625.359 221.714 624.074 222.999L625.488 224.414ZM627.956 218.525C627.956 213.879 624.246 210.169 619.6 210.169V212.169C623.141 212.169 625.956 214.984 625.956 218.525H627.956ZM670.963 272.064H669.963V273.064H670.963V272.064ZM670.963 186.095V185.095H669.963V186.095H670.963ZM771.58 186.095H772.58V185.095H771.58V186.095ZM771.58 208.099V209.099H772.58V208.099H771.58ZM704.481 208.099V207.099H703.481V208.099H704.481ZM704.481 219.101H703.481V220.101H704.481V219.101ZM771.58 219.101H772.58V218.101H771.58V219.101ZM771.58 238.994V239.994H772.58V238.994H771.58ZM704.481 238.994V237.994H703.481V238.994H704.481ZM704.481 249.996H703.481V250.996H704.481V249.996ZM771.58 249.996H772.58V248.996H771.58V249.996ZM771.58 272.064V273.064H772.58V272.064H771.58ZM671.963 272.064V186.095H669.963V272.064H671.963ZM670.963 187.095H771.58V185.095H670.963V187.095ZM770.58 186.095V208.099H772.58V186.095H770.58ZM771.58 207.099H704.481V209.099H771.58V207.099ZM703.481 208.099V219.101H705.481V208.099H703.481ZM704.481 220.101H771.58V218.101H704.481V220.101ZM770.58 219.101V238.994H772.58V219.101H770.58ZM771.58 237.994H704.481V239.994H771.58V237.994ZM703.481 238.994V249.996H705.481V238.994H703.481ZM704.481 250.996H771.58V248.996H704.481V250.996ZM770.58 249.996V272.064H772.58V249.996H770.58ZM771.58 271.064H670.963V273.064H771.58V271.064Z" fill="url(#paint1_linear_124_2)"/>
<defs>
<linearGradient id="paint0_linear_124_2" x1="386" y1="-173" x2="386" y2="420" gradientUnits="userSpaceOnUse">
<stop stop-color="#24345F"/>
<stop offset="1" stop-color="#020713" stop-opacity="0"/>
</linearGradient>
<linearGradient id="paint1_linear_124_2" x1="386" y1="-173" x2="386" y2="420" gradientUnits="userSpaceOnUse">
<stop stop-color="#FFB800"/>
<stop offset="1" stop-color="#998F77"/>
</linearGradient>
</defs>
</svg>
